<svg xmlns="http://www.w3.org/2000/svg" xmlns:xlink="http://www.w3.org/1999/xlink" width="907.087" height="529.133" viewBox="0 0 680.315 396.85"><defs><symbol overflow="visible" id="a"><path d="M1.375-11.953V0h1.203v-5.75H9.11V0h1.204v-11.953H9.108v5.297H2.58v-5.297z"/></symbol><symbol overflow="visible" id="b"><path d="M1.375-11.938V0h8.172v-.969H2.578V-5.75h6.219v-.906H2.578v-4.36h6.719v-.921z"/></symbol><symbol overflow="visible" id="c"><path d="M.36 0h.78l.313-.031c.516-1.125.875-2.39 1.344-3.563 1.703.031 3.562-.078 5.172.031l.14.22c.297.874.641 1.718.954 2.593.078.25.171.516.296.719.391.047.829.031 1.25.031-.296-.844-4.296-11.578-4.406-11.86-.016-.078-.062-.171-.14-.187-.11-.031-.204 0-.313 0h-.563c-.265 0-.359-.047-.437.235L.36 0zm5.046-10.844c.719 2.125 1.5 4.235 2.25 6.328H3.141l1.484-4.093z"/></symbol><symbol overflow="visible" id="d"><path d="M1.375-11.953V0h3.484c.547 0 1.094.031 1.625-.016a5.417 5.417 0 0 0 3.36-1.64c2.234-2.282 2.203-6.235.015-8.547-.78-.844-1.859-1.516-3.203-1.688-.64-.093-1.312-.062-1.968-.062zM2.563-.906v-10.125H4.78c.469 0 .938-.016 1.407.015a4.617 4.617 0 0 1 2.156.782c1.406.968 1.984 2.671 1.984 4.312 0 1.375-.375 2.781-1.39 3.766A4.663 4.663 0 0 1 6.203-.937c-.453.046-.922.03-1.36.03z"/></symbol><symbol overflow="visible" id="f"><path d="M1.36-6.594c.296-.14.53-.343.827-.484a4.333 4.333 0 0 1 1.47-.375c.234-.016.515-.047.75 0 .437.062.812.328 1.062.687.265.407.375.782.375 1.438v.766c-.828 0-1.657.062-2.453.28-1 .22-2.079.72-2.438 1.61-.375.86.016 2 .781 2.516.391.265.829.281 1.282.25.718-.063 1.437-.235 2.062-.61.297-.171.594-.39.766-.687h.015V0h1.079v-4.547c0-.5.046-1.031-.047-1.531-.11-.688-.532-1.25-1.032-1.656-.593-.438-1.265-.594-2.156-.532a4.969 4.969 0 0 0-2.078.532c-.094.03-.266.093-.313.187-.062.078-.015.188-.015.281.031.22.047.454.062.672zm4.484 2.547v1.313c0 .39.015.75-.219 1.093a1.794 1.794 0 0 1-.719.61c-.984.5-2.484.343-2.906-.485-.344-.609.016-1.312.516-1.703.734-.562 2.187-.828 3.328-.828z"/></symbol><symbol overflow="visible" id="g"><path d="M.36-3.11h4.984V0h1.078v-3.11H8.39v-.921H6.42v-7.375H5.5c-.313 0-.406-.016-.547.25C4.266-10.031.641-4.437.516-4.281c-.141.234-.157.218-.157.578zm5.03-7.359v6.438H1.485c.11-.235.297-.469.438-.703.875-1.329 2.922-4.485 3.344-5.454.062-.093.078-.203.125-.28z"/></symbol><symbol overflow="visible" id="h"><path d="M.625-11.297v.969h6.75l-.64.61a15.29 15.29 0 0 0-1.548 1.937 14.322 14.322 0 0 0-2.39 7.89h1.14c0-2.515.641-5.03 1.844-7.25.594-1.125 1.203-1.937 2.016-2.875.11-.109.266-.234.312-.375.032-.078.016-.203.016-.296v-.61z"/></symbol><symbol overflow="visible" id="i"><path d="M7.297-1.922c-.328.234-.61.5-.984.703-.797.422-2.047.64-2.97.203C2-1.703 1.642-3.375 1.829-4.75c.031-.281.078-.547.172-.813.375-1.125 1.328-2 2.875-1.828.828.079 1.234.204 1.89.579.126.062.22.156.36.187.016-.203.078-.438.11-.64.046-.282.046-.313-.204-.438-.203-.078-.39-.188-.593-.25-.797-.344-2.094-.453-3-.188-1.22.344-2.126 1.391-2.532 2.563C.72-5.047.672-4.484.672-3.906.687-2.094 1.922-.328 3.734.03c1 .203 2.157-.078 2.844-.437.172-.094.688-.406.781-.563.047-.078-.062-.953-.062-.953z"/></symbol><symbol overflow="visible" id="j"><path d="M1.39-8.672c.141-.219.25-.437.407-.64.36-.485.86-.86 1.422-1.094.89-.36 2.203-.39 2.906.406.625.703.36 1.797-.203 2.453-.516.61-1.188.906-2.188.953-.296.016-.562.047-.859.063v.86h1.188c1 0 1.656.155 2.203.75.953 1 .859 2.765-.188 3.687-.531.437-1.281.578-1.969.53C2.766-.812 1.58-1.515.797-2.624c-.094.188-.094.422-.125.61-.047.28-.047.28.125.5.5.671 1.469 1.296 2.25 1.515C4.422.406 6.03.219 7.094-.828c.203-.203.39-.422.547-.672.64-1 .656-2.313-.047-3.266-.297-.406-.672-.703-1.11-.953-.28-.172-.625-.343-.968-.375 1-.468 1.921-1.265 2.093-2.547.157-1.203-.546-1.953-1.265-2.375-1.125-.656-2.594-.625-3.75-.062a3.961 3.961 0 0 0-1.375 1.11c-.063.077-.328.374-.328.515 0 .094.078.172.125.234z"/></symbol><symbol overflow="visible" id="k"><path d="M1.11-11.953V0h1.093v-1.078h.016c.187.375.625.734.984.922 1.235.656 2.719 0 3.531-1.047 1.641-2.156.985-5.813-1.171-6.828-.844-.375-1.86-.203-2.625.312a4.172 4.172 0 0 0-.75.735v-4.97zm2.656 4.578c.812-.063 1.656.297 2.14.953.328.438.5.953.578 1.484.172 1.25.047 2.844-1.078 3.657-.187.14-.39.25-.625.328-.922.344-1.86.25-2.375-.563-.156-.28-.203-.296-.203-.703V-5.78c0-.172-.031-.39.031-.532.282-.578.922-1 1.532-1.062z"/></symbol><symbol overflow="visible" id="l"><path d="M1.25-7.906c.25-.969.656-2.063 1.64-2.5.422-.172.86-.203 1.313-.172.844.078 1.672.422 2.188 1.11a2.47 2.47 0 0 1 .437 1.765c-.203 1.797-1.953 3.094-3.094 4.047-.656.562-2.515 2.312-2.515 2.312l-.282.282C.781-.906.75-.906.75-.61V0h7.234v-.969H1.75C2.313-1.5 4.594-3.516 4.906-3.75c1-.813 2.125-1.625 2.719-2.797.672-1.344.375-3.031-.75-4.031-.688-.594-1.64-.89-2.547-.922-.844-.016-1.703.156-2.375.688C1.422-10.392 1-9.75.75-9.095c-.047.11-.125.281-.11.39.016.11.11.204.172.267.141.171.266.374.438.53z"/></symbol><symbol overflow="visible" id="m"><path d="M1.453-11.297v6.172h.64c.095 0 .22.016.282-.016.094-.062.14-.187.188-.25a2.38 2.38 0 0 1 .406-.39c.61-.516 1.797-.735 2.594-.328 1.078.515 1.296 1.875 1.203 2.937-.047.672-.25 1.297-.657 1.688-.906.968-2.437.984-3.562.421a3.683 3.683 0 0 1-1.36-1.234h-.015c-.047.094-.453.703-.453.797 0 .078.062.125.094.172A4.457 4.457 0 0 0 2.766 0C4.312.484 6.03.11 7.109-1.14c1.297-1.5 1.125-3.938-.375-5.25a3.059 3.059 0 0 0-1.812-.766c-1-.14-1.89.343-2.422.781v-4.016h4.89v-.906z"/></symbol><symbol overflow="visible" id="n"><path d="M1.672-10.36v.86c.953 0 1.594-.172 2.36-.5v9.14h-2.25V0h5.624v-.86H5.141V-11.5c-.407 0-.344.094-.657.344-.718.515-1.687.797-2.812.797z"/></symbol><symbol overflow="visible" id="o"><path d="M2.547-10.953c-.5.344-.844.812-1.094 1.344C.828-8.406.75-6.984.75-5.453c0 1.922.36 3.703 1.313 4.719.921.937 2.359 1.187 3.578.687.765-.297 1.312-.937 1.656-1.625.625-1.219.687-2.687.687-4.203 0-.484-.015-.953-.062-1.438-.125-1.156-.516-2.437-1.156-3.14-1.047-1.156-2.922-1.406-4.22-.5zm3.469.984c.796.86.875 2.516.875 4.078v.938c0 .781-.141 1.812-.313 2.406-.234.813-.64 1.39-1.437 1.75-.954.344-1.954.016-2.5-.734-.75-.985-.782-2.719-.782-4.25 0-1.453.016-3.047.72-4 .78-1.031 2.452-1.203 3.437-.188z"/></symbol><symbol overflow="visible" id="p"><path d="M6.797-5.688h.016c0 .22-.016.438-.016.641-.031 1.36-.39 2.969-1.563 3.813-.343.265-.875.5-1.39.53-.938.141-1.688-.312-2.219-.671l-.453.797a3.86 3.86 0 0 0 3.172.703c1.172-.266 2.11-1.156 2.703-2.172.89-1.562 1.11-3.453.766-5.625-.22-1.562-.891-3.062-2.282-3.625-.765-.312-1.718-.281-2.468.047-.72.344-1.344.953-1.75 1.625-.375.64-.516 1.36-.516 2.078 0 .625.062 1.234.265 1.813.329.812.985 1.734 1.766 2 .281.093.578.125.89.125a3.563 3.563 0 0 0 2.423-1.094c.218-.203.578-.688.656-.984zM4.203-10.64c.766-.046 1.531.25 1.984.922.204.328.329.719.407 1.094.265 1 .297 2.094-.282 3-.359.563-1.015 1.094-1.796 1.14-.579.048-1.188-.03-1.657-.39-.687-.531-.937-1.313-.937-2.438 0-1.015.047-1.812.594-2.468.375-.516.859-.75 1.687-.86z"/></symbol><symbol overflow="visible" id="q"><path d="M6.125-11.953v4.86c-.328-.36-.656-.704-1.094-.907-1.531-.64-3.015.188-3.781 1.547-.875 1.61-.766 3.75.281 5.266C2.266-.141 3.5.375 4.781-.095c.5-.187 1.11-.687 1.313-1.125h.015V0h1.11v-11.953zm-.063 5.531c.079.156.047.36.047.531v3.547c0 .39-.015.438-.234.75-.313.453-.797.782-1.36.844a2.474 2.474 0 0 1-2.156-1c-.28-.406-.437-.89-.515-1.36-.032-.203-.032-.374-.047-.562-.11-1.125.125-2.469 1.125-3.203.172-.11.36-.203.562-.281 1-.39 2.094-.282 2.579.734z"/></symbol><symbol overflow="visible" id="r"><path d="M3.219-6.11v.016c-1.063.313-1.969.89-2.39 1.89-.454 1.048-.141 2.329.624 3.157C2.25-.187 3.36.22 4.531.203 6.25.172 7.906-1.078 8.11-2.844a3.39 3.39 0 0 0-.015-.797C7.78-4.953 6.797-5.75 5.53-6.094l.422-.14c.734-.297 1.328-.72 1.703-1.407.578-1.109.016-2.39-.906-3.109-.938-.703-2.188-.89-3.328-.656C2.062-11.11.782-9.953.859-8.47c.032.516.266.938.516 1.25.406.485 1.172 1 1.844 1.11zm.875-4.53c.765-.047 1.703.078 2.265.671.657.703.688 1.985.032 2.703-.422.454-1.016.672-1.625.72-.844.077-1.797-.063-2.407-.72-.671-.734-.625-2.078.11-2.765.437-.422 1.047-.563 1.625-.61zm-.016 4.968c.813-.047 1.688.14 2.281.734.22.235.391.532.5.844.282.89.157 2.032-.515 2.719-.469.469-1.11.64-1.75.688-.766.046-1.672-.141-2.219-.72-.75-.827-.906-2.53-.016-3.5.454-.468 1.079-.702 1.72-.765z"/></symbol><symbol overflow="visible" id="s"><path d="M7.203-1.89c-.406.296-.516.437-1.016.702-1.062.532-2.296.61-3.187-.03-.86-.626-1.36-1.641-1.36-3.095h5.673c0-1.265-.282-2.375-1.016-3.14-.781-.781-2.031-1.016-3.078-.688-.39.11-.75.329-1.078.579-1.094.875-1.563 2.28-1.532 3.64C.641-2.14 1.86-.344 3.672.031 4.609.22 5.609.016 6.453-.406c.156-.094.734-.406.797-.563.047-.078-.047-.922-.047-.922zm-.797-3.08H1.72c.203-1.265 1.25-2.593 2.64-2.437 1.141.11 1.735.922 1.954 1.937.046.172.062.328.093.5z"/></symbol><symbol overflow="visible" id="t"><path d="M.875-2.188c-.031.282-.094.563-.14.844-.032.266-.11.328.109.469a8.006 8.006 0 0 0 1.812.766c1.61.468 3.469.515 4.89-.547.22-.172.423-.36.61-.578.438-.594.828-1.297.735-2.266-.125-1.234-.954-2.266-2.079-2.781-1.53-.688-4.015-.578-4.718-2.11-.531-1.187.422-2.218 1.484-2.593 1.047-.391 2.438-.25 3.328.171.407.188.75.47 1.14.704.032-.297.095-.563.157-.86.031-.187.078-.36-.125-.437l-.328-.172a6.813 6.813 0 0 0-1.453-.453c-1.547-.297-3.328-.125-4.5 1.031-.594.578-1.094 1.375-.89 2.563.25 1.218 1.218 2 2.202 2.374.594.22 1.25.344 1.86.5.375.063.75.157 1.11.282.937.343 1.734 1.031 1.734 2.297C7.718-1.891 6.75-1.11 5.733-.86 4.422-.531 2.875-1 1.984-1.47c-.406-.203-.75-.484-1.109-.718z"/></symbol><symbol overflow="visible" id="u"><path d="M1.86-10.453v2.328H.186v.86h1.657v4.609c0 .765-.047 1.672.453 2.312.281.375.687.485 1.281.438.5-.047 1-.14 1.469-.313.156-.078.719-.312.797-.437.031-.063-.203-.828-.203-.828l-.407.312c-.53.328-1.593.672-2.046.047-.391-.531-.297-1.313-.297-1.938v-4.203h2.671v-.859H2.892v-2.328z"/></symbol><symbol overflow="visible" id="v"><path d="M6.094-2.063h.015v1.594c0 .485 0 .953-.156 1.422-.25.61-.703 1.188-1.437 1.281-.204.016-.438 0-.641-.015-1.125-.031-1.86-.36-2.75-.75v.656c0 .313.047.344.375.438.875.359 2.453.718 3.547.453C6.25 2.703 7.125 1.562 7.219.187c.015-.234 0-.5 0-.734v-7.687H6.125v1.375c-.25-.422-.531-.813-.984-1.094-1.204-.719-2.829.062-3.5 1C.53-5.593.328-3.5 1.203-1.984c.172.296.375.578.625.812.828.813 2.234 1.234 3.25.516.422-.281.89-.906 1.016-1.406zM4.39-7.375c.156 0 .328 0 .484.047.625.11.969.672 1.172 1.219.125.375.078.78.078 1.187 0 .86-.016 1.75-.313 2.563-.203.609-.625 1.14-1.296 1.203a2.395 2.395 0 0 1-.672-.063c-1.047-.25-1.781-1.14-2-2.172-.313-1.5.422-3.328 1.937-3.843.203-.063.406-.125.61-.141z"/></symbol><symbol overflow="visible" id="w"><path d="M5.89 3.828c-.14-.156-.312-.297-.468-.437-.14-.125-.25-.25-.375-.391-1.719-1.89-2.625-4.922-2.484-8.14.078-1.766.421-3.563 1.25-5.141.374-.703 1.03-1.703 1.609-2.203.156-.141.328-.282.469-.438h-.563c-.094 0-.219-.015-.297.031-.203.094-.718.61-.797.688-1.656 1.64-2.64 4.14-2.765 7.062-.094 2.079.25 4.188 1.187 6.047a8.466 8.466 0 0 0 1.61 2.25c.171.172.562.547.765.656.078.032.203.016.297.016z"/></symbol><symbol overflow="visible" id="x"><path d="M1.375-11.953V0h1.203v-11.953z"/></symbol><symbol overflow="visible" id="y"><path d="M2.172-6.406h-.016v-1.719H1.11V0h1.094v-3.766c0-.843-.047-1.703.328-2.5.188-.39.485-.75.875-.953.328-.156.672-.172 1.031-.14.516.046 1.016.171 1.344.609.313.39.328.906.328 1.39V0h1.11v-4.61c0-.859.078-1.812-.328-2.593-.329-.61-.97-.906-1.641-1a2.95 2.95 0 0 0-1.047.031c-.89.188-1.719.906-2.031 1.766z"/></symbol><symbol overflow="visible" id="z"><path d="M-.031-8.125l1.765 2.219 1.407 1.703v.016l-.438.53L-.14 0c.407 0 .813 0 1.188-.016l.234-.28 2.313-3.267h.015C4.484-2.375 5.344-1.171 6.25-.03c.36.046.797.03 1.203.03L5.36-2.625a61.897 61.897 0 0 0-1.28-1.563v-.015l.593-.719L7.14-8.125c-.391 0-.782 0-1.172.016l-.219.25L3.61-5c-.813-1.016-1.594-2.094-2.438-3.094-.36-.047-.797-.031-1.203-.031z"/></symbol><symbol overflow="visible" id="A"><path d="M.86-12.922c.14.156.312.297.468.438.14.125.25.265.375.39 1.5 1.735 2.36 4.063 2.484 6.953.079 2.125-.25 4.344-1.218 6.282A8.32 8.32 0 0 1 1.703 3c-.125.14-.234.266-.375.39-.156.141-.328.282-.469.438h.563c.094 0 .219.016.297-.015.203-.11.718-.626.797-.704C4.172 1.47 5.14-1.03 5.28-3.937 5.374-6.031 5.03-8.141 4.093-10a8.466 8.466 0 0 0-1.61-2.25c-.171-.172-.562-.547-.765-.64-.078-.047-.203-.032-.297-.032z"/></symbol><symbol overflow="visible" id="B"><path d="M.125-11.953L3.672.062h1.203c.86-3.203 2.61-8.609 3.094-10.906h.015c.016.313.125.594.188.89.437 1.688 2 6.985 2 6.985l.812 2.703c.016.094.032.22.11.282.047.093.234.046.328.046h.906l3.547-12.015c-.344 0-.719-.016-1.016.031l-.078.203-.672 2.25C13.33-6.688 12.438-4 11.75-1.109h-.031c-.031-.344-.14-.688-.235-1.032l-.468-1.687c-.172-.578-2.313-8-2.391-8.063-.047-.093-.219-.062-.313-.062h-.89c-.266.953-.547 1.86-.828 2.797C5.859-6.47 5-3.891 4.359-1.11l-.156-.72c-.672-2.546-2.86-9.89-2.86-9.89-.046-.25-.124-.234-.405-.234z"/></symbol><symbol overflow="visible" id="C"><path d="M1.844-7.219C.312-5.703.14-3.062 1.469-1.359c.187.25.406.484.672.671a3.592 3.592 0 0 0 2.64.782c1.735-.219 2.922-1.61 3.282-3.078.484-2.047-.532-4.329-2.438-5.063-1.469-.594-2.953 0-3.781.828zm4.297.453c.828.735.984 1.922.921 2.985-.046.797-.28 1.64-.843 2.25-.938 1-2.657 1-3.657.031-.515-.547-.828-1.344-.874-2.281-.094-1.406.265-2.875 1.64-3.438 1.016-.437 2.188-.11 2.813.453z"/></symbol><symbol overflow="visible" id="D"><path d="M2.156-5.953h-.015v-2.172H1.109V0h1.079v-3.922c0-.265 0-.515.03-.781.25-1.469 1.516-2.547 3.188-2.547v-.984a3.413 3.413 0 0 0-2.765 1.421c-.204.25-.407.547-.485.86z"/></symbol><symbol overflow="visible" id="E"><path d="M1.14-11.953V0h1c.016-.938-.046-1.906.016-2.813.438-.546.953-1.015 1.438-1.53.656 1.077 1.375 2.077 2.078 3.124.266.39.516.828.812 1.188.344.047.782.031 1.172.031l-.718-1.11L4.28-5.046v-.016l2.97-3.062c-.453 0-.89 0-1.313.016l-.375.359-3.39 3.516v-7.72z"/></symbol><symbol overflow="visible" id="F"><path d="M1.11-11.953v1.094h1.077v-1.094zm0 3.828V0h1.077v-8.125z"/></symbol><symbol overflow="visible" id="G"><path d="M.125-8.125c.094.328.813 2.063.828 2.11L3-.736l.172.422c.094.25.14.282.031.547l-.187.5c-.157.422-.329.844-.657 1.11-.578.484-1.515.203-2.218.047l.078.968c.328.047.656.079.984.11.75.078 1.219-.094 1.672-.469.563-.484.844-1.156 1.11-1.844l.53-1.484 1.75-4.766c.298-.86.657-1.672.938-2.531h-.781c-.078 0-.219-.031-.297.031-.031.047-.047.125-.063.172l-.14.36c-.172.453-.328.875-.484 1.328l-1 2.812c-.25.75-.547 1.531-.688 2.313a19.56 19.56 0 0 0-.719-2.297C2.812-4 1.47-7.594 1.297-7.937c-.078-.188-.14-.188-.406-.188z"/></symbol><symbol overflow="visible" id="H"><path d="M2.172-6.406h-.016v-1.719H1.11V0h1.094v-3.781c0-.844-.047-1.688.328-2.469.328-.672.89-1.203 1.906-1.11.516.048 1.032.173 1.36.61.312.39.328.906.328 1.39V0h1.11v-3.781c0-.844-.048-1.688.327-2.469.329-.672.891-1.203 1.907-1.11.515.048 1.031.173 1.36.61.312.39.327.906.327 1.39V0h1.11v-4.563c0-.828.093-1.75-.266-2.515-.36-.703-.953-1.078-1.89-1.14a3.028 3.028 0 0 0-1.61.296c-.594.344-1.047.906-1.313 1.531-.125-.546-.265-.921-.64-1.28-.406-.36-.938-.5-1.453-.548-1.25-.094-2.047.422-2.578 1.188-.141.203-.282.406-.344.625z"/></symbol><symbol overflow="visible" id="I"><path d="M.531-1.703C.5-1.47.453-1.234.406-1 .375-.812.328-.719.5-.64c.703.421 1.547.64 2.547.734 1.125.093 2.531-.157 3.078-1.266.156-.312.25-.656.266-1 .062-1.234-.922-2.031-1.766-2.328-.938-.36-2.234-.234-2.89-.953a1.107 1.107 0 0 1-.032-1.406c.688-.954 2.906-.547 3.797-.11.125.063.25.157.406.188l.157-.938c-.813-.36-1.516-.562-2.641-.562-.953 0-1.844.219-2.39.781-.548.563-.735 1.516-.407 2.234.313.688.953 1.141 1.672 1.36 1.015.36 2.156.187 2.828 1.015.39.485.313 1.204-.11 1.641-.827.75-2.593.469-3.546.063-.328-.141-.625-.344-.938-.516z"/></symbol><symbol overflow="visible" id="J"><path d="M1.828-8.125H.344v.86h1.484V0h1.078v-7.266h2.14v-.859H2.892v-1.5c0-.234-.047-.531.046-.781.376-.75 1.594-.89 2.594-.719.203.031.39.11.594.14v-.968c-1.172-.156-2.453-.235-3.422.547a2.2 2.2 0 0 0-.406.453c-.375.453-.469.953-.469 1.719z"/></symbol><symbol overflow="visible" id="K"><path d="M1.11-8.125v5.828c0 .5.015 1 .218 1.469.328.672 1.016.937 1.719.937.953 0 1.89-.312 2.578-.984.188-.188.36-.375.484-.625h.016V0h1.094v-8.125h-1.11V-4c0 .734.11 1.516-.265 2.172-.282.484-.766.86-1.297 1.031-.36.11-.734.11-1.125.078-.36-.031-.75-.078-1-.39-.344-.407-.219-1.391-.219-1.985v-5.031z"/></symbol><symbol overflow="visible" id="L"><path d="M1.11-11.953V0h1.093v-3.766c0-.843-.047-1.703.328-2.5.188-.39.485-.75.875-.953.328-.156.672-.172 1.031-.14.516.046 1.016.171 1.344.609.313.39.328.906.328 1.39V0h1.11v-4.672c0-.86.078-1.797-.344-2.578-.344-.578-.953-.86-1.594-.953a4.552 4.552 0 0 0-1.031 0 2.847 2.847 0 0 0-1.563.937c-.187.22-.421.5-.484.797h-.015v-5.484z"/></symbol><symbol overflow="visible" id="M"><path d="M1.828-8.125H.344v.86h1.484V0h1.078v-7.266h2.281v-.859H2.892v-1.36c0-.671-.063-1.03.359-1.421.516-.375 1.172-.375 1.938-.047v-1c-.422-.063-.844-.14-1.282-.094-.469.031-.969.25-1.234.531-.469.36-.781 1.063-.844 1.72-.016.218 0 .437 0 .655zm4.734-3.844v1.094h1.079v-1.094zm0 3.844V0h1.079v-8.125z"/></symbol><symbol overflow="visible" id="N"><path d="M1.11-11.953V0h1.077v-11.953z"/></symbol><symbol overflow="visible" id="O"><path d="M4.094-11.953c-.219.64-.438 1.265-.657 1.89-.015.438-.015.907-.015 1.36h1.344v-1.328h-.407l.422-1.922zm3.515 0c-.218.64-.453 1.265-.656 1.89-.016.438-.016.907-.016 1.36h1.344v-1.328h-.406l.422-1.922z"/></symbol><symbol overflow="visible" id="P"><path d="M.469-11.953v1.344h.406L.453-8.703h.688c.218-.625.437-1.25.656-1.89.016-.423.016-.891.016-1.36zm3.515 0v1.344h.407l-.438 1.906h.703c.219-.625.438-1.25.64-1.89.032-.423.032-.891.032-1.36z"/></symbol><symbol overflow="visible" id="Q"><path d="M1.625-11.953v1.094h1.078v-1.094zm0 3.828V.609c0 .282.047.61-.125.875-.375.579-1.453.735-2.281.422-.219-.062-.406-.187-.61-.281l-.234.86c.172.062.328.156.5.203.938.343 2.11.5 2.953-.11.328-.219.594-.531.734-.922.172-.406.141-.828.141-1.265v-8.516z"/></symbol><symbol overflow="visible" id="R"><path d="M1.703-1.344V0h.422l-.438 1.906h.688c.219-.625.453-1.25.656-1.89.016-.422.016-.891.016-1.36z"/></symbol><symbol overflow="visible" id="S"><path d="M.063-4.5v.86h4.812v-.86z"/></symbol><symbol overflow="visible" id="T"><path d="M2.188-6.984v-1.141H1.109v11h1.094v-3.953c.235.344.516.64.875.86 1.235.734 2.781.155 3.625-.954 1.11-1.422 1.234-3.562.453-5.187-.437-.922-1.281-1.782-2.375-1.875a2.978 2.978 0 0 0-2.187.796c-.156.141-.266.297-.406.454zm1.578-.375c.718-.047 1.406.28 1.875.796.296.329.53.704.656 1.125.61 1.61.062 3.86-1.688 4.532-1 .375-1.968.031-2.359-.906-.078-.172-.047-.391-.047-.579v-3.546c0-.407.031-.438.297-.72a1.92 1.92 0 0 1 1.266-.702z"/></symbol><symbol overflow="visible" id="e"><path d="M1.906-5.969c-.343.64.032 1.438.766 1.594a1.1 1.1 0 0 0 .86-.203c.515-.375.577-1.14.14-1.625a1.175 1.175 0 0 0-.578-.328c-.547-.078-1 .172-1.188.562z"/></symbol></defs><path d="M542.543 81.34h-57.09a3.986 3.986 0 0 0-3.984 3.984v48.727a3.986 3.986 0 0 0 3.984 3.984h57.09a3.984 3.984 0 0 0 3.984-3.984V85.324a3.982 3.982 0 0 0-3.984-3.984z" fill="#dfdfdf" stroke-width="2.989" stroke="#bfbfbf" stroke-miterlimit="10"/><use xlink:href="#a" x="491.401" y="101.493"/><use xlink:href="#b" x="503.094" y="101.493"/><use xlink:href="#c" x="513.244" y="101.493"/><use xlink:href="#d" x="524.219" y="101.493"/><use xlink:href="#e" x="72.986" y="171.27"/><use xlink:href="#e" x="82.177" y="171.27"/><use xlink:href="#e" x="91.347" y="171.27"/><path d="M185.305 152.363H128.21a3.984 3.984 0 0 0-3.984 3.985v20.375a3.984 3.984 0 0 0 3.984 3.984h57.094a3.983 3.983 0 0 0 3.984-3.984v-20.375a3.984 3.984 0 0 0-3.984-3.985z" fill="#cfc" stroke-width="2.989" stroke="#80ff80" stroke-miterlimit="10"/><use xlink:href="#f" x="135.743" y="172.178"/><use xlink:href="#g" x="143.777" y="172.178"/><use xlink:href="#h" x="152.528" y="172.178"/><use xlink:href="#i" x="161.279" y="172.178"/><use xlink:href="#j" x="169.026" y="172.178"/><path d="M122.73 166.535h-17.62" fill="none" stroke-width="1.494" stroke="#80ff80" stroke-miterlimit="10"/><path d="M101.473 166.535l5.816 2.91-2.18-2.91 2.18-2.91" fill="#80ff80"/><path d="M274.613 152.363h-57.09a3.984 3.984 0 0 0-3.988 3.985v20.375a3.984 3.984 0 0 0 3.988 3.984h57.09c2.2 0 3.985-1.781 3.985-3.984v-20.375a3.984 3.984 0 0 0-3.985-3.985z" fill="#cfc" stroke-width="2.989" stroke="#80ff80" stroke-miterlimit="10"/><use xlink:href="#k" x="224.909" y="172.513"/><use xlink:href="#j" x="233.229" y="172.513"/><use xlink:href="#l" x="241.98" y="172.513"/><use xlink:href="#m" x="250.73" y="172.513"/><use xlink:href="#i" x="259.481" y="172.513"/><path d="M212.043 166.535h-17.625" fill="none" stroke-width="1.494" stroke="#80ff80" stroke-miterlimit="10"/><path d="M190.781 166.535l5.82 2.91-2.183-2.91 2.184-2.91" fill="#80ff80"/><path d="M363.922 152.363h-57.09a3.984 3.984 0 0 0-3.984 3.985v20.375a3.984 3.984 0 0 0 3.984 3.984h57.09a3.984 3.984 0 0 0 3.988-3.984v-20.375a3.984 3.984 0 0 0-3.988-3.985z" fill="#cfc" stroke-width="2.989" stroke="#80ff80" stroke-miterlimit="10"/><use xlink:href="#i" x="314.218" y="172.513"/><use xlink:href="#n" x="321.965" y="172.513"/><use xlink:href="#o" x="330.716" y="172.513"/><use xlink:href="#k" x="339.466" y="172.513"/><use xlink:href="#p" x="347.786" y="172.513"/><path d="M301.352 166.535H283.73" fill="none" stroke-width="1.494" stroke="#80ff80" stroke-miterlimit="10"/><path d="M280.094 166.535l5.816 2.91-2.18-2.91 2.18-2.91" fill="#80ff80"/><path d="M453.234 152.363h-57.09a3.984 3.984 0 0 0-3.988 3.985v20.375a3.984 3.984 0 0 0 3.989 3.984h57.09a3.983 3.983 0 0 0 3.984-3.984v-20.375a3.984 3.984 0 0 0-3.985-3.985z" fill="#cfc" stroke-width="2.989" stroke="#80ff80" stroke-miterlimit="10"/><use xlink:href="#q" x="403.384" y="172.513"/><use xlink:href="#f" x="411.704" y="172.513"/><use xlink:href="#p" x="419.739" y="172.513"/><use xlink:href="#r" x="428.489" y="172.513"/><use xlink:href="#m" x="437.24" y="172.513"/><path d="M390.664 166.535H373.04" fill="none" stroke-width="1.494" stroke="#80ff80" stroke-miterlimit="10"/><path d="M369.402 166.535l5.82 2.91-2.183-2.91 2.184-2.91" fill="#80ff80"/><path d="M542.543 152.363h-57.09a3.984 3.984 0 0 0-3.984 3.985v20.375a3.984 3.984 0 0 0 3.984 3.984h57.09a3.981 3.981 0 0 0 3.984-3.984v-20.375a3.981 3.981 0 0 0-3.984-3.985z" fill="#cfc" stroke-width="2.989" stroke="#80ff80" stroke-miterlimit="10"/><use xlink:href="#s" x="492.836" y="172.513"/><use xlink:href="#q" x="500.583" y="172.513"/><use xlink:href="#g" x="508.903" y="172.513"/><use xlink:href="#r" x="517.654" y="172.513"/><use xlink:href="#p" x="526.404" y="172.513"/><path d="M479.973 166.535h-17.621" fill="none" stroke-width="1.494" stroke="#80ff80" stroke-miterlimit="10"/><path d="M458.715 166.535l5.816 2.91-2.18-2.91 2.18-2.91" fill="#80ff80"/><path d="M411.223 219.684H269.09a3.987 3.987 0 0 0-3.985 3.988v34.547a3.987 3.987 0 0 0 3.985 3.988h142.133a3.987 3.987 0 0 0 3.984-3.988v-34.547a3.987 3.987 0 0 0-3.984-3.988z" fill="#ccf" stroke-width="2.989" stroke="#99f" stroke-miterlimit="10"/><use xlink:href="#t" x="292.624" y="245.488"/><use xlink:href="#u" x="302.38" y="245.488"/><use xlink:href="#f" x="308.621" y="245.488"/><use xlink:href="#v" x="316.655" y="245.488"/><use xlink:href="#s" x="324.975" y="245.488"/><use xlink:href="#w" x="338.558" y="245.488"/><use xlink:href="#x" x="345.301" y="245.488"/><use xlink:href="#y" x="349.247" y="245.488"/><use xlink:href="#q" x="357.567" y="245.488"/><use xlink:href="#s" x="365.888" y="245.488"/><use xlink:href="#z" x="373.635" y="245.488"/><use xlink:href="#A" x="380.951" y="245.488"/><path d="M411.223 283.465H269.09a3.986 3.986 0 0 0-3.985 3.984V322a3.984 3.984 0 0 0 3.985 3.984h142.133a3.982 3.982 0 0 0 3.984-3.984v-34.55c0-2.2-1.785-3.985-3.984-3.985z" fill="#fcc" stroke-width="2.989" stroke="#f99" stroke-miterlimit="10"/><use xlink:href="#B" x="276.718" y="309.267"/><use xlink:href="#C" x="292.215" y="309.267"/><use xlink:href="#D" x="300.467" y="309.267"/><use xlink:href="#E" x="305.989" y="309.267"/><use xlink:href="#F" x="313.809" y="309.267"/><use xlink:href="#y" x="317.109" y="309.267"/><use xlink:href="#v" x="325.429" y="309.267"/><use xlink:href="#d" x="339.585" y="309.267"/><use xlink:href="#F" x="351.958" y="309.267"/><use xlink:href="#D" x="355.258" y="309.267"/><use xlink:href="#s" x="360.781" y="309.267"/><use xlink:href="#i" x="368.528" y="309.267"/><use xlink:href="#u" x="376.275" y="309.267"/><use xlink:href="#C" x="382.515" y="309.267"/><use xlink:href="#D" x="390.749" y="309.267"/><use xlink:href="#G" x="396.272" y="309.267"/><path d="M185.305 109.688H128.21a3.986 3.986 0 0 0-3.984 3.984v20.379a3.986 3.986 0 0 0 3.984 3.984h57.094a3.986 3.986 0 0 0 3.984-3.984v-20.38a3.985 3.985 0 0 0-3.984-3.983z" fill="#ffdfbf" stroke-width="2.989" stroke="#ffbf80" stroke-miterlimit="10"/><use xlink:href="#H" x="137.142" y="129.839"/><use xlink:href="#f" x="150.484" y="129.839"/><use xlink:href="#F" x="158.518" y="129.839"/><use xlink:href="#y" x="161.819" y="129.839"/><use xlink:href="#u" x="170.139" y="129.839"/><path d="M156.758 139.527v7.703" fill="none" stroke-width="1.494" stroke="#ffbf80" stroke-miterlimit="10"/><path d="M156.758 150.867l2.91-5.816-2.91 2.18-2.91-2.18" fill="#ffbf80"/><path d="M542.543 109.688h-57.09a3.986 3.986 0 0 0-3.984 3.984v20.379a3.986 3.986 0 0 0 3.984 3.984h57.09a3.984 3.984 0 0 0 3.984-3.984v-20.38a3.982 3.982 0 0 0-3.984-3.983z" fill="#ffdfbf" stroke-width="2.989" stroke="#ffbf80" stroke-miterlimit="10"/><use xlink:href="#H" x="490.232" y="129.088"/><use xlink:href="#f" x="503.574" y="129.088"/><use xlink:href="#I" x="511.608" y="129.088"/><use xlink:href="#u" x="518.25" y="129.088"/><use xlink:href="#s" x="524.491" y="129.088"/><use xlink:href="#D" x="532.238" y="129.088"/><path d="M514 139.527v7.703" fill="none" stroke-width="1.494" stroke="#ffbf80" stroke-miterlimit="10"/><path d="M514 150.867l2.906-5.816-2.906 2.18-2.91-2.18" fill="#ffbf80"/><use xlink:href="#D" x="457.842" y="44.954"/><use xlink:href="#s" x="463.365" y="44.954"/><use xlink:href="#J" x="471.112" y="44.954"/><use xlink:href="#s" x="476.349" y="44.954"/><use xlink:href="#D" x="484.095" y="44.954"/><use xlink:href="#s" x="489.618" y="44.954"/><use xlink:href="#y" x="497.365" y="44.954"/><use xlink:href="#i" x="505.685" y="44.954"/><use xlink:href="#s" x="513.432" y="44.954"/><use xlink:href="#u" x="526.619" y="44.954"/><use xlink:href="#C" x="532.86" y="44.954"/><use xlink:href="#i" x="547.05" y="44.954"/><use xlink:href="#K" x="554.797" y="44.954"/><use xlink:href="#D" x="563.118" y="44.954"/><use xlink:href="#D" x="568.64" y="44.954"/><use xlink:href="#s" x="574.163" y="44.954"/><use xlink:href="#y" x="581.91" y="44.954"/><use xlink:href="#u" x="590.23" y="44.954"/><use xlink:href="#k" x="601.911" y="44.954"/><use xlink:href="#D" x="609.732" y="44.954"/><use xlink:href="#f" x="615.254" y="44.954"/><use xlink:href="#y" x="623.289" y="44.954"/><use xlink:href="#i" x="631.609" y="44.954"/><use xlink:href="#L" x="639.356" y="44.954"/><path d="M545.383 49.734l-19.59 28.563" fill="none" stroke-width="1.196" stroke="gray" stroke-miterlimit="10"/><path d="M525.07 79.352c1.168-1.137 2.598-2.094 4.606-3.043-2.27.77-3.324.046-3.426-2.352-.164 2.215-.54 3.895-1.18 5.395z" stroke-width="1.199" stroke-linejoin="round" stroke="gray" stroke-miterlimit="10"/><use xlink:href="#i" x="566.223" y="119.363"/><use xlink:href="#K" x="573.97" y="119.363"/><use xlink:href="#D" x="582.29" y="119.363"/><use xlink:href="#D" x="587.813" y="119.363"/><use xlink:href="#s" x="593.336" y="119.363"/><use xlink:href="#y" x="601.082" y="119.363"/><use xlink:href="#u" x="609.403" y="119.363"/><use xlink:href="#k" x="621.083" y="119.363"/><use xlink:href="#D" x="628.904" y="119.363"/><use xlink:href="#f" x="634.427" y="119.363"/><use xlink:href="#y" x="642.461" y="119.363"/><use xlink:href="#i" x="650.782" y="119.363"/><use xlink:href="#L" x="658.529" y="119.363"/><path d="M561.445 119.012l-11.558 1.187" fill="none" stroke-width="1.196" stroke="gray" stroke-miterlimit="10"/><path d="M548.617 120.328c1.621.152 3.27.625 5.29 1.54-2.052-1.231-2.18-2.5-.423-4.122-1.793 1.305-3.312 2.102-4.867 2.582z" stroke-width="1.196" stroke-linejoin="round" stroke="gray" stroke-miterlimit="10"/><use xlink:href="#f" x="75.49" y="76.844"/><use xlink:href="#y" x="83.524" y="76.844"/><use xlink:href="#C" x="91.845" y="76.844"/><use xlink:href="#u" x="100.595" y="76.844"/><use xlink:href="#L" x="106.836" y="76.844"/><use xlink:href="#s" x="115.156" y="76.844"/><use xlink:href="#D" x="122.903" y="76.844"/><use xlink:href="#k" x="133.866" y="76.844"/><use xlink:href="#D" x="141.687" y="76.844"/><use xlink:href="#f" x="147.209" y="76.844"/><use xlink:href="#y" x="155.244" y="76.844"/><use xlink:href="#i" x="163.564" y="76.844"/><use xlink:href="#L" x="171.311" y="76.844"/><path d="M133.484 81.625l13.735 24.926" fill="none" stroke-width="1.196" stroke="gray" stroke-miterlimit="10"/><path d="M147.836 107.668c-.492-1.55-.703-3.254-.649-5.469-.332 2.367-1.449 2.985-3.628 2 1.898 1.137 3.226 2.227 4.277 3.469z" stroke-width="1.197" stroke-linejoin="round" stroke="gray" stroke-miterlimit="10"/><use xlink:href="#M" x="37.731" y="224.228"/><use xlink:href="#N" x="46.482" y="224.228"/><use xlink:href="#s" x="49.782" y="224.228"/><use xlink:href="#I" x="57.529" y="224.228"/><use xlink:href="#u" x="69.61" y="224.228"/><use xlink:href="#C" x="75.851" y="224.228"/><use xlink:href="#v" x="90.042" y="224.228"/><use xlink:href="#C" x="98.362" y="224.228"/><use xlink:href="#F" x="112.553" y="224.228"/><use xlink:href="#y" x="115.853" y="224.228"/><use xlink:href="#y" x="129.596" y="224.228"/><use xlink:href="#s" x="137.916" y="224.228"/><use xlink:href="#z" x="145.663" y="224.228"/><use xlink:href="#u" x="152.979" y="224.228"/><use xlink:href="#i" x="164.66" y="224.228"/><use xlink:href="#C" x="172.407" y="224.228"/><use xlink:href="#H" x="181.158" y="224.228"/><use xlink:href="#H" x="194.5" y="224.228"/><use xlink:href="#F" x="207.842" y="224.228"/><use xlink:href="#u" x="211.142" y="224.228"/><path d="M222.168 229.129l39.578 3.976" fill="none" stroke-width="1.196" stroke="gray" stroke-miterlimit="10"/><path d="M263.016 233.234c-1.555-.476-3.075-1.27-4.868-2.574 1.762 1.621 1.633 2.89-.414 4.125 2.016-.918 3.664-1.394 5.282-1.55z" stroke-width="1.196" stroke-linejoin="round" stroke="gray" stroke-miterlimit="10"/><use xlink:href="#M" x="60.003" y="288.007"/><use xlink:href="#N" x="68.754" y="288.007"/><use xlink:href="#s" x="72.054" y="288.007"/><use xlink:href="#I" x="79.801" y="288.007"/><use xlink:href="#u" x="91.882" y="288.007"/><use xlink:href="#L" x="98.123" y="288.007"/><use xlink:href="#f" x="106.443" y="288.007"/><use xlink:href="#u" x="114.478" y="288.007"/><use xlink:href="#G" x="126.158" y="288.007"/><use xlink:href="#C" x="132.976" y="288.007"/><use xlink:href="#K" x="141.726" y="288.007"/><use xlink:href="#O" x="155.469" y="288.007"/><use xlink:href="#I" x="164.22" y="288.007"/><use xlink:href="#s" x="170.862" y="288.007"/><use xlink:href="#s" x="178.608" y="288.007"/><use xlink:href="#P" x="186.355" y="288.007"/><path d="M199.895 290.688l61.851 6.199" fill="none" stroke-width="1.196" stroke="gray" stroke-miterlimit="10"/><path d="M263.016 297.016c-1.555-.477-3.075-1.27-4.868-2.57 1.762 1.616 1.633 2.886-.414 4.12 2.016-.918 3.664-1.394 5.282-1.55z" stroke-width="1.196" stroke-linejoin="round" stroke="gray" stroke-miterlimit="10"/><use xlink:href="#i" x="496.684" y="234.529"/><use xlink:href="#C" x="504.431" y="234.529"/><use xlink:href="#H" x="513.182" y="234.529"/><use xlink:href="#H" x="526.523" y="234.529"/><use xlink:href="#F" x="539.865" y="234.529"/><use xlink:href="#u" x="543.166" y="234.529"/><use xlink:href="#C" x="554.846" y="234.529"/><use xlink:href="#k" x="563.597" y="234.529"/><use xlink:href="#Q" x="571.917" y="234.529"/><use xlink:href="#s" x="575.718" y="234.529"/><use xlink:href="#i" x="583.465" y="234.529"/><use xlink:href="#u" x="591.212" y="234.529"/><use xlink:href="#I" x="597.453" y="234.529"/><use xlink:href="#R" x="604.094" y="234.529"/><use xlink:href="#F" x="467.716" y="256.447"/><use xlink:href="#q" x="471.016" y="256.447"/><use xlink:href="#s" x="479.336" y="256.447"/><use xlink:href="#y" x="487.083" y="256.447"/><use xlink:href="#u" x="495.404" y="256.447"/><use xlink:href="#F" x="501.644" y="256.447"/><use xlink:href="#M" x="504.944" y="256.447"/><use xlink:href="#s" x="513.695" y="256.447"/><use xlink:href="#q" x="521.442" y="256.447"/><use xlink:href="#k" x="534.651" y="256.447"/><use xlink:href="#G" x="542.472" y="256.447"/><use xlink:href="#t" x="554.678" y="256.447"/><use xlink:href="#a" x="564.434" y="256.447"/><use xlink:href="#c" x="576.127" y="256.447"/><use xlink:href="#S" x="587.101" y="256.447"/><use xlink:href="#n" x="592.839" y="256.447"/><use xlink:href="#L" x="606.479" y="256.447"/><use xlink:href="#f" x="614.799" y="256.447"/><use xlink:href="#I" x="622.834" y="256.447"/><use xlink:href="#L" x="629.475" y="256.447"/><path d="M540.703 217.793l-17.683-33.93" fill="none" stroke-width="1.196" stroke="gray" stroke-miterlimit="10"/><path d="M522.434 182.734c.453 1.559.625 3.27.52 5.48.386-2.359 1.519-2.948 3.675-1.913-1.875-1.18-3.176-2.301-4.195-3.567z" stroke-width="1.197" stroke-linejoin="round" stroke="gray" stroke-miterlimit="10"/><path d="M512.922 217.793l-59.66-34.648" fill="none" stroke-width="1.196" stroke="gray" stroke-miterlimit="10"/><path d="M452.156 182.504c1.219 1.074 2.278 2.43 3.371 4.355-.933-2.203-.293-3.304 2.082-3.586-2.214.004-3.914-.246-5.453-.77z" stroke-width="1.196" stroke-linejoin="round" stroke="gray" stroke-miterlimit="10"/><path d="M485.14 217.793l-113.964-39.02" fill="none" stroke-width="1.196" stroke="gray" stroke-miterlimit="10"/><path d="M369.969 178.363c1.406.817 2.707 1.938 4.156 3.614-1.344-1.977-.93-3.184 1.344-3.922-2.172.433-3.887.523-5.5.308z" stroke-width="1.197" stroke-linejoin="round" stroke="gray" stroke-miterlimit="10"/><use xlink:href="#i" x="223.863" y="107.299"/><use xlink:href="#L" x="231.61" y="107.299"/><use xlink:href="#F" x="239.93" y="107.299"/><use xlink:href="#N" x="243.23" y="107.299"/><use xlink:href="#q" x="246.531" y="107.299"/><use xlink:href="#T" x="260.291" y="107.299"/><use xlink:href="#C" x="268.611" y="107.299"/><use xlink:href="#F" x="277.362" y="107.299"/><use xlink:href="#y" x="280.662" y="107.299"/><use xlink:href="#u" x="288.982" y="107.299"/><use xlink:href="#I" x="295.223" y="107.299"/><use xlink:href="#u" x="307.304" y="107.299"/><use xlink:href="#C" x="313.545" y="107.299"/><use xlink:href="#T" x="327.736" y="107.299"/><use xlink:href="#f" x="336.056" y="107.299"/><use xlink:href="#D" x="343.574" y="107.299"/><use xlink:href="#s" x="349.096" y="107.299"/><use xlink:href="#y" x="356.843" y="107.299"/><use xlink:href="#u" x="365.164" y="107.299"/><path d="M296.316 114.95l-5.39 49.722" fill="none" stroke-width="1.196" stroke="gray" stroke-miterlimit="10"/><path d="M290.79 165.941c.487-1.554 1.292-3.07 2.608-4.851-1.632 1.746-2.902 1.61-4.12-.45.902 2.024 1.363 3.68 1.511 5.301z" stroke-width="1.197" stroke-linejoin="round" stroke="gray" stroke-miterlimit="10"/></svg>