<svg xmlns="http://www.w3.org/2000/svg" xmlns:xlink="http://www.w3.org/1999/xlink" width="944.881" height="340.157" viewBox="0 0 708.661 255.118"><defs><symbol overflow="visible" id="a"><path d="M1.375-11.953V0h1.203v-5.75H9.11V0h1.204v-11.953H9.108v5.297H2.58v-5.297z"/></symbol><symbol overflow="visible" id="b"><path d="M1.11-11.953v1.094h1.077v-1.094zm0 3.828V0h1.077v-8.125z"/></symbol><symbol overflow="visible" id="c"><path d="M.531-1.703C.5-1.47.453-1.234.406-1 .375-.812.328-.719.5-.64c.703.421 1.547.64 2.547.734 1.125.093 2.531-.157 3.078-1.266.156-.312.25-.656.266-1 .062-1.234-.922-2.031-1.766-2.328-.938-.36-2.234-.234-2.89-.953a1.107 1.107 0 0 1-.032-1.406c.688-.954 2.906-.547 3.797-.11.125.063.25.157.406.188l.157-.938c-.813-.36-1.516-.562-2.641-.562-.953 0-1.844.219-2.39.781-.548.563-.735 1.516-.407 2.234.313.688.953 1.141 1.672 1.36 1.015.36 2.156.187 2.828 1.015.39.485.313 1.204-.11 1.641-.827.75-2.593.469-3.546.063-.328-.141-.625-.344-.938-.516z"/></symbol><symbol overflow="visible" id="d"><path d="M1.86-10.453v2.328H.186v.86h1.657v4.609c0 .765-.047 1.672.453 2.312.281.375.687.485 1.281.438.5-.047 1-.14 1.469-.313.156-.078.719-.312.797-.437.031-.063-.203-.828-.203-.828l-.407.312c-.53.328-1.593.672-2.046.047-.391-.531-.297-1.313-.297-1.938v-4.203h2.671v-.859H2.892v-2.328z"/></symbol><symbol overflow="visible" id="e"><path d="M1.844-7.219C.312-5.703.14-3.062 1.469-1.359c.187.25.406.484.672.671a3.592 3.592 0 0 0 2.64.782c1.735-.219 2.922-1.61 3.282-3.078.484-2.047-.532-4.329-2.438-5.063-1.469-.594-2.953 0-3.781.828zm4.297.453c.828.735.984 1.922.921 2.985-.046.797-.28 1.64-.843 2.25-.938 1-2.657 1-3.657.031-.515-.547-.828-1.344-.874-2.281-.094-1.406.265-2.875 1.64-3.438 1.016-.437 2.188-.11 2.813.453z"/></symbol><symbol overflow="visible" id="f"><path d="M2.156-5.953h-.015v-2.172H1.109V0h1.079v-3.922c0-.265 0-.515.03-.781.25-1.469 1.516-2.547 3.188-2.547v-.984a3.413 3.413 0 0 0-2.765 1.421c-.204.25-.407.547-.485.86z"/></symbol><symbol overflow="visible" id="g"><path d="M.125-8.125c.094.328.813 2.063.828 2.11L3-.736l.172.422c.094.25.14.282.031.547l-.187.5c-.157.422-.329.844-.657 1.11-.578.484-1.515.203-2.218.047l.078.968c.328.047.656.079.984.11.75.078 1.219-.094 1.672-.469.563-.484.844-1.156 1.11-1.844l.53-1.484 1.75-4.766c.298-.86.657-1.672.938-2.531h-.781c-.078 0-.219-.031-.297.031-.031.047-.047.125-.063.172l-.14.36c-.172.453-.328.875-.484 1.328l-1 2.812c-.25.75-.547 1.531-.688 2.313a19.56 19.56 0 0 0-.719-2.297C2.812-4 1.47-7.594 1.297-7.937c-.078-.188-.14-.188-.406-.188z"/></symbol><symbol overflow="visible" id="h"><path d="M.875-2.188c-.031.282-.094.563-.14.844-.032.266-.11.328.109.469a8.006 8.006 0 0 0 1.812.766c1.61.468 3.469.515 4.89-.547.22-.172.423-.36.61-.578.438-.594.828-1.297.735-2.266-.125-1.234-.954-2.266-2.079-2.781-1.53-.688-4.015-.578-4.718-2.11-.531-1.187.422-2.218 1.484-2.593 1.047-.391 2.438-.25 3.328.171.407.188.75.47 1.14.704.032-.297.095-.563.157-.86.031-.187.078-.36-.125-.437l-.328-.172a6.813 6.813 0 0 0-1.453-.453c-1.547-.297-3.328-.125-4.5 1.031-.594.578-1.094 1.375-.89 2.563.25 1.218 1.218 2 2.202 2.374.594.22 1.25.344 1.86.5.375.063.75.157 1.11.282.937.343 1.734 1.031 1.734 2.297C7.718-1.891 6.75-1.11 5.733-.86 4.422-.531 2.875-1 1.984-1.47c-.406-.203-.75-.484-1.109-.718z"/></symbol><symbol overflow="visible" id="i"><path d="M1.36-6.594c.296-.14.53-.343.827-.484a4.333 4.333 0 0 1 1.47-.375c.234-.016.515-.047.75 0 .437.062.812.328 1.062.687.265.407.375.782.375 1.438v.766c-.828 0-1.657.062-2.453.28-1 .22-2.079.72-2.438 1.61-.375.86.016 2 .781 2.516.391.265.829.281 1.282.25.718-.063 1.437-.235 2.062-.61.297-.171.594-.39.766-.687h.015V0h1.079v-4.547c0-.5.046-1.031-.047-1.531-.11-.688-.532-1.25-1.032-1.656-.593-.438-1.265-.594-2.156-.532a4.969 4.969 0 0 0-2.078.532c-.094.03-.266.093-.313.187-.062.078-.015.188-.015.281.031.22.047.454.062.672zm4.484 2.547v1.313c0 .39.015.75-.219 1.093a1.794 1.794 0 0 1-.719.61c-.984.5-2.484.343-2.906-.485-.344-.609.016-1.312.516-1.703.734-.562 2.187-.828 3.328-.828z"/></symbol><symbol overflow="visible" id="j"><path d="M6.094-2.063h.015v1.594c0 .485 0 .953-.156 1.422-.25.61-.703 1.188-1.437 1.281-.204.016-.438 0-.641-.015-1.125-.031-1.86-.36-2.75-.75v.656c0 .313.047.344.375.438.875.359 2.453.718 3.547.453C6.25 2.703 7.125 1.562 7.219.187c.015-.234 0-.5 0-.734v-7.687H6.125v1.375c-.25-.422-.531-.813-.984-1.094-1.204-.719-2.829.062-3.5 1C.53-5.593.328-3.5 1.203-1.984c.172.296.375.578.625.812.828.813 2.234 1.234 3.25.516.422-.281.89-.906 1.016-1.406zM4.39-7.375c.156 0 .328 0 .484.047.625.11.969.672 1.172 1.219.125.375.078.78.078 1.187 0 .86-.016 1.75-.313 2.563-.203.609-.625 1.14-1.296 1.203a2.395 2.395 0 0 1-.672-.063c-1.047-.25-1.781-1.14-2-2.172-.313-1.5.422-3.328 1.937-3.843.203-.063.406-.125.61-.141z"/></symbol><symbol overflow="visible" id="k"><path d="M7.203-1.89c-.406.296-.516.437-1.016.702-1.062.532-2.296.61-3.187-.03-.86-.626-1.36-1.641-1.36-3.095h5.673c0-1.265-.282-2.375-1.016-3.14-.781-.781-2.031-1.016-3.078-.688-.39.11-.75.329-1.078.579-1.094.875-1.563 2.28-1.532 3.64C.641-2.14 1.86-.344 3.672.031 4.609.22 5.609.016 6.453-.406c.156-.094.734-.406.797-.563.047-.078-.047-.922-.047-.922zm-.797-3.08H1.72c.203-1.265 1.25-2.593 2.64-2.437 1.141.11 1.735.922 1.954 1.937.046.172.062.328.093.5z"/></symbol><symbol overflow="visible" id="l"><path d="M5.89 3.828c-.14-.156-.312-.297-.468-.437-.14-.125-.25-.25-.375-.391-1.719-1.89-2.625-4.922-2.484-8.14.078-1.766.421-3.563 1.25-5.141.374-.703 1.03-1.703 1.609-2.203.156-.141.328-.282.469-.438h-.563c-.094 0-.219-.015-.297.031-.203.094-.718.61-.797.688-1.656 1.64-2.64 4.14-2.765 7.062-.094 2.079.25 4.188 1.187 6.047a8.466 8.466 0 0 0 1.61 2.25c.171.172.562.547.765.656.078.032.203.016.297.016z"/></symbol><symbol overflow="visible" id="m"><path d="M1.375-11.953V0h1.203v-11.953z"/></symbol><symbol overflow="visible" id="n"><path d="M2.172-6.406h-.016v-1.719H1.11V0h1.094v-3.766c0-.843-.047-1.703.328-2.5.188-.39.485-.75.875-.953.328-.156.672-.172 1.031-.14.516.046 1.016.171 1.344.609.313.39.328.906.328 1.39V0h1.11v-4.61c0-.859.078-1.812-.328-2.593-.329-.61-.97-.906-1.641-1a2.95 2.95 0 0 0-1.047.031c-.89.188-1.719.906-2.031 1.766z"/></symbol><symbol overflow="visible" id="o"><path d="M6.125-11.953v4.86c-.328-.36-.656-.704-1.094-.907-1.531-.64-3.015.188-3.781 1.547-.875 1.61-.766 3.75.281 5.266C2.266-.141 3.5.375 4.781-.095c.5-.187 1.11-.687 1.313-1.125h.015V0h1.11v-11.953zm-.063 5.531c.079.156.047.36.047.531v3.547c0 .39-.015.438-.234.75-.313.453-.797.782-1.36.844a2.474 2.474 0 0 1-2.156-1c-.28-.406-.437-.89-.515-1.36-.032-.203-.032-.374-.047-.562-.11-1.125.125-2.469 1.125-3.203.172-.11.36-.203.562-.281 1-.39 2.094-.282 2.579.734z"/></symbol><symbol overflow="visible" id="p"><path d="M-.031-8.125l1.765 2.219 1.407 1.703v.016l-.438.53L-.14 0c.407 0 .813 0 1.188-.016l.234-.28 2.313-3.267h.015C4.484-2.375 5.344-1.171 6.25-.03c.36.046.797.03 1.203.03L5.36-2.625a61.897 61.897 0 0 0-1.28-1.563v-.015l.593-.719L7.14-8.125c-.391 0-.782 0-1.172.016l-.219.25L3.61-5c-.813-1.016-1.594-2.094-2.438-3.094-.36-.047-.797-.031-1.203-.031z"/></symbol><symbol overflow="visible" id="q"><path d="M.86-12.922c.14.156.312.297.468.438.14.125.25.265.375.39 1.5 1.735 2.36 4.063 2.484 6.953.079 2.125-.25 4.344-1.218 6.282A8.32 8.32 0 0 1 1.703 3c-.125.14-.234.266-.375.39-.156.141-.328.282-.469.438h.563c.094 0 .219.016.297-.015.203-.11.718-.626.797-.704C4.172 1.47 5.14-1.03 5.28-3.937 5.374-6.031 5.03-8.141 4.093-10a8.466 8.466 0 0 0-1.61-2.25c-.171-.172-.562-.547-.765-.64-.078-.047-.203-.032-.297-.032z"/></symbol><symbol overflow="visible" id="s"><path d="M.125-11.953L3.672.062h1.203c.86-3.203 2.61-8.609 3.094-10.906h.015c.016.313.125.594.188.89.437 1.688 2 6.985 2 6.985l.812 2.703c.016.094.032.22.11.282.047.093.234.046.328.046h.906l3.547-12.015c-.344 0-.719-.016-1.016.031l-.078.203-.672 2.25C13.33-6.688 12.438-4 11.75-1.109h-.031c-.031-.344-.14-.688-.235-1.032l-.468-1.687c-.172-.578-2.313-8-2.391-8.063-.047-.093-.219-.062-.313-.062h-.89c-.266.953-.547 1.86-.828 2.797C5.859-6.47 5-3.891 4.359-1.11l-.156-.72c-.672-2.546-2.86-9.89-2.86-9.89-.046-.25-.124-.234-.405-.234z"/></symbol><symbol overflow="visible" id="t"><path d="M1.14-11.953V0h1c.016-.938-.046-1.906.016-2.813.438-.546.953-1.015 1.438-1.53.656 1.077 1.375 2.077 2.078 3.124.266.39.516.828.812 1.188.344.047.782.031 1.172.031l-.718-1.11L4.28-5.046v-.016l2.97-3.062c-.453 0-.89 0-1.313.016l-.375.359-3.39 3.516v-7.72z"/></symbol><symbol overflow="visible" id="u"><path d="M1.375-11.953V0h3.484c.547 0 1.094.031 1.625-.016a5.417 5.417 0 0 0 3.36-1.64c2.234-2.282 2.203-6.235.015-8.547-.78-.844-1.859-1.516-3.203-1.688-.64-.093-1.312-.062-1.968-.062zM2.563-.906v-10.125H4.78c.469 0 .938-.016 1.407.015a4.617 4.617 0 0 1 2.156.782c1.406.968 1.984 2.671 1.984 4.312 0 1.375-.375 2.781-1.39 3.766A4.663 4.663 0 0 1 6.203-.937c-.453.046-.922.03-1.36.03z"/></symbol><symbol overflow="visible" id="v"><path d="M7.297-1.922c-.328.234-.61.5-.984.703-.797.422-2.047.64-2.97.203C2-1.703 1.642-3.375 1.829-4.75c.031-.281.078-.547.172-.813.375-1.125 1.328-2 2.875-1.828.828.079 1.234.204 1.89.579.126.062.22.156.36.187.016-.203.078-.438.11-.64.046-.282.046-.313-.204-.438-.203-.078-.39-.188-.593-.25-.797-.344-2.094-.453-3-.188-1.22.344-2.126 1.391-2.532 2.563C.72-5.047.672-4.484.672-3.906.687-2.094 1.922-.328 3.734.03c1 .203 2.157-.078 2.844-.437.172-.094.688-.406.781-.563.047-.078-.062-.953-.062-.953z"/></symbol><symbol overflow="visible" id="w"><path d="M5.688-6.938h-.016c-.25-.25-.75-.421-1.094-.5-1.187-.218-2.422.313-3.031 1.375a2.83 2.83 0 0 0-.266.72c-.14.718.032 1.468.344 1.968a.68.68 0 0 1 .125.234c0 .094-.063.157-.094.235-.328.64-.36 1.594.203 2.187v.016c-.234.14-.484.297-.671.484C.578.391.265 1.453.703 2.25c.547 1.031 2.063 1.563 3.36 1.64.937.063 1.906-.046 2.765-.406.766-.328 1.516-.906 1.672-1.765.016-.14.016-.297.016-.422a2.204 2.204 0 0 0-.188-.781c-.515-1.157-1.906-1.47-3.047-1.5-.187 0-.36-.016-.547-.016h-.718C3.687-1 3.328-.969 3-1.016c-.469-.062-.734-.578-.703-1.015.015-.172.062-.344.125-.5.234.125.453.265.719.328a2.9 2.9 0 0 0 2.406-.313 2.718 2.718 0 0 0 1.156-2.906c-.078-.297-.187-.64-.406-.86v-.015a2.667 2.667 0 0 1 1.281-.344.58.58 0 0 0 .063.235c.187.312.64.375.921.156a.585.585 0 0 0 .204-.453c.015-.484-.391-.75-.829-.828-.562-.094-1.187.031-1.703.265-.187.079-.39.172-.546.329zm-.657.688c1 .781.907 2.422-.187 3.063-.61.328-1.344.296-1.86-.126-1.015-.765-.921-2.437.204-3.078.593-.312 1.343-.25 1.843.141zM2.984-.125c.422-.031.875 0 1.297 0 1.063 0 2.125 0 2.813.484.375.266.656.829.515 1.297-.046.203-.203.39-.359.532-.594.53-1.438.734-2.188.812-1.25.11-2.64-.172-3.343-.844-.485-.484-.438-1.172.093-1.75.313-.297.735-.5 1.172-.531z"/></symbol><symbol overflow="visible" id="x"><path d="M4.047-10.36c-.484.376-.281 1.172.328 1.282a.632.632 0 0 0 .578-.14c.5-.376.313-1.173-.281-1.298a.687.687 0 0 0-.625.157zm.156 3.844v5.61H2.047c-.094 0-.203-.031-.313.015-.437.11-.406.797.047.875.14.032.344.016.485.016h4.812c.172 0 .36.016.5-.094.297-.203.203-.719-.156-.797-.219-.062-.5-.015-.719-.015H5.25v-5.719c0-.172.031-.406-.047-.578-.172-.281-.547-.219-.828-.219H2.25c-.25 0-.531-.016-.656.266-.016.047-.032.078-.032.125-.03.25.125.484.36.515.266.047.516 0 .781 0z"/></symbol><symbol overflow="visible" id="y"><path d="M2.703-7.422H1.422c-.203 0-.438-.031-.64.016C.468-7.36.343-6.97.5-6.72c.14.235.375.203.625.203h1.578v3.985c0 .281-.015.547 0 .828.047.453.235.89.578 1.203.406.328 1.031.563 1.64.563 1.22.046 2.813-.438 2.813-2.016 0-.188.032-.406-.015-.594-.125-.36-.766-.422-.969-.11-.094.126-.063.282-.063.423 0 .234.016.484-.093.703-.313.625-1.157.734-1.766.672-.25-.032-.5-.11-.703-.266-.469-.36-.375-.969-.375-1.516v-3.875h2.813c.25 0 .578.063.734-.218a.294.294 0 0 0 .031-.125c.031-.047.031-.11.031-.172 0-.047-.03-.078-.046-.125-.125-.328-.532-.266-.829-.266H3.75v-1.344c0-.187.031-.421-.078-.593-.203-.282-.813-.25-.938.093-.062.172-.03.422-.03.61z"/></symbol><symbol overflow="visible" id="z"><path d="M6.484-6.516c-.015.25-.015.485.172.672.25.266.735.266.969 0 .156-.14.203-.343.188-.547 0-.078-.032-.171-.047-.25-.282-.812-1.422-.89-2.391-.89-1.156 0-1.813.172-2.578.765-1.625 1.25-1.938 3.72-.719 5.36A3.6 3.6 0 0 0 3.813-.141c1.453.485 3.14.125 3.859-.968a.45.45 0 0 0 .125-.172c.14-.235.328-.594.14-.86-.156-.203-.578-.234-.796-.078-.172.14-.204.39-.329.563-.375.593-1.218.968-2.203.765-1.343-.265-2.25-1.53-2.234-2.859 0-1.219.797-2.438 2-2.781.297-.063.578-.078.875-.078.422 0 .828.03 1.234.093z"/></symbol><symbol overflow="visible" id="A"><path d="M3.219-7.25C1.797-6.61.984-5.062 1.047-3.531 1.125-1.844 2.313-.22 4.03.03a3.167 3.167 0 0 0 1.94-.31c1.328-.672 2.078-2.188 2-3.625-.078-1.64-1.11-3.188-2.828-3.547-.657-.172-1.407-.031-1.922.203zM5.75-6.219c1.234.844 1.469 2.64.828 3.922-.375.75-1.047 1.36-1.906 1.453-.984.094-1.813-.625-2.234-1.453C1.844-3.53 2-5.234 3.14-6.125c.14-.125.328-.219.5-.297.718-.328 1.562-.187 2.109.203z"/></symbol><symbol overflow="visible" id="B"><path d="M1.844-6.797c0-.11.015-.234-.016-.328-.14-.406-.687-.297-1.016-.297-.234 0-.5-.047-.671.14-.297.266-.078.75.312.766h.531v5.61H.563c-.11 0-.235 0-.344.047-.313.187-.281.671.047.828C.406.03.64 0 .812 0H1.97c.203 0 .453.047.625-.047.297-.172.297-.64 0-.812-.094-.047-.219-.047-.344-.047h-.406v-2.61c0-.671-.016-1.359.234-2 .172-.453.547-.953 1.078-1.046a.702.702 0 0 1 .5.078c.39.218.422.906.422 1.468v4.11c-.219 0-.531-.063-.734.062-.281.156-.281.625 0 .781C3.53.048 3.78 0 4 0h1.11c.171 0 .406.031.562-.031.312-.157.344-.64.031-.828-.11-.047-.234-.047-.344-.047h-.421v-2.61c0-.671-.016-1.359.25-2 .171-.453.53-.953 1.062-1.046a.702.702 0 0 1 .5.078c.39.218.438.906.438 1.468v4.11c-.235 0-.547-.063-.75.062-.266.156-.266.625 0 .781.187.11.453.063.656.063h1.125c.172 0 .39.031.547-.031.328-.157.343-.64.03-.828-.093-.047-.218-.047-.343-.047h-.406v-3.375c0-1 .062-2.016-.469-2.688-.516-.656-1.484-.64-2.156-.234-.297.172-.5.422-.703.672a.897.897 0 0 0-.266-.453c-.437-.547-1.344-.688-2.11-.22-.187.11-.343.25-.5.407z"/></symbol><symbol overflow="visible" id="C"><path d="M6.953-11.938c-.234.063-.437.25-.656.391-.969.64-1.906 1.735-2.422 2.813-1.078 2.25-1.063 4.703-.016 6.906C4.484-.547 5.406.438 6.58 1.203c.202.14.437.281.687.172a.44.44 0 0 0 .14-.703C7.296.562 7.141.5 7.031.406c-.984-.64-1.781-1.625-2.265-2.703-1.094-2.297-.782-5.187.765-7.219a6.46 6.46 0 0 1 1.61-1.515c.109-.078.234-.125.296-.235.266-.343-.109-.765-.484-.671z"/></symbol><symbol overflow="visible" id="I"><path d="M4.406-11.938a.57.57 0 0 0-.422.454c-.03.218 0 .484 0 .703v11c0 .25-.046.531.016.781a.497.497 0 0 0 .61.406.499.499 0 0 0 .437-.453c.016-.234 0-.469 0-.719v-11c0-.234.031-.515-.016-.75-.062-.28-.343-.484-.625-.421z"/></symbol><symbol overflow="visible" id="J"><path d="M1.11-5.625c-.25.266-.141.719.202.86.172.062.36.03.532.03H7.25c.188 0 .39.016.563-.093.421-.25.265-.906-.22-.969-.155-.016-.312 0-.468 0H1.672c-.25 0-.438 0-.563.172z"/></symbol><symbol overflow="visible" id="K"><path d="M2.828-6.531c.906-.094 1.922-.219 2.703.36.25.202.453.452.578.765.094.234.079.5.079.75-1.297 0-2.688.156-3.86.75-.656.328-1.25.89-1.312 1.656-.032.422.125.906.296 1.172.658.984 1.954 1.234 3.08 1.11.703-.048 1.484-.266 1.89-.657.125.14.235.266.375.36C7.11.014 7.72 0 8.234 0c.344 0 .782.047.782-.469 0-.187-.11-.375-.297-.422-.14-.046-.281-.015-.422-.015-.313 0-.938-.031-1.047-.235-.047-.093-.016-.25-.016-.375v-2.687c0-.328.032-.672 0-1a2.556 2.556 0 0 0-.593-1.281c-.672-.766-1.594-1.047-2.813-1.047-.75 0-1.531.062-1.953.422-.328.25-.516.796-.281 1.171.25.36.812.407 1.093.063.157-.203.157-.406.141-.656zm3.36 2.765v1.36c0 .265.015.547-.125.781-.204.328-.594.5-.938.61-.844.234-1.938.28-2.594-.22-.234-.171-.469-.468-.469-.859 0-.61.626-.984 1.126-1.187.843-.36 1.89-.453 3-.485z"/></symbol><symbol overflow="visible" id="L"><path d="M1.844-11.938c-.313.079-.453.438-.25.688.093.11.234.172.36.266.78.5 1.562 1.406 2 2.171C5.28-6.53 5.218-3.516 3.718-1.327 3.25-.656 2.64 0 1.953.453c-.094.063-.203.11-.281.188-.203.171-.219.5-.016.671a.528.528 0 0 0 .313.094c.265 0 .515-.218.718-.36A6.132 6.132 0 0 0 4.282-.468c1.938-2.406 2.297-5.984.563-8.828A7.828 7.828 0 0 0 2.812-11.5c-.218-.156-.671-.5-.968-.438z"/></symbol><symbol overflow="visible" id="M"><path d="M1.734-9.61v8.704h-.78C.796-.906.64-.937.5-.86c-.313.171-.297.671.031.828C.641 0 .75 0 .86 0h2.797c.11 0 .25 0 .375-.047.297-.172.297-.64 0-.812-.14-.079-.297-.047-.453-.047h-.781V-3.5c0-.39-.047-.813.047-1.203.172-1.078 1.234-1.984 2.297-1.875.312.031.609.125.796.375.36.437.297 1.125.297 1.64v3.657h-.796c-.157 0-.313-.031-.438.047-.313.171-.297.671.031.828C5.125 0 5.25 0 5.36 0h2.782c.125 0 .265 0 .375-.047.296-.172.296-.64 0-.812-.125-.079-.282-.047-.438-.047h-.797v-3.297c0-.703.047-1.438-.218-2.11C6.78-7.03 6.109-7.39 5.39-7.468c-.97-.11-1.97.25-2.594.985V-9.89c0-.125.015-.28-.063-.406-.109-.219-.343-.219-.562-.219-.485 0-.985-.015-1.469 0-.172.016-.328.094-.39.25-.11.25.015.547.265.641.14.031.281.016.422.016z"/></symbol><symbol overflow="visible" id="N"><path d="M2.094-3.344h5.328c.14 0 .281 0 .39-.078.157-.125.172-.297.172-.469 0-1.53-.656-2.812-1.78-3.312-1.329-.578-2.845-.344-3.845.516C.953-5.5.61-3.345 1.563-1.782c.171.297.406.578.656.812C3.829.5 6.688.391 7.75-1.25c.11-.172.25-.438.234-.656-.03-.297-.28-.407-.546-.407a.504.504 0 0 0-.329.094c-.171.125-.203.36-.312.531a1.818 1.818 0 0 1-.75.625c-1.36.594-3.016-.093-3.672-1.406a2.399 2.399 0 0 1-.281-.875zm4.828-.89H2.094c.203-.829.437-1.36 1.078-1.86 1-.781 2.64-.703 3.344.453.25.422.359.907.406 1.407z"/></symbol><symbol overflow="visible" id="O"><path d="M1.953-9.61v8.704h-.875c-.14 0-.297-.031-.437.047-.329.171-.297.703.046.828C.813.016.954 0 1.063 0h.641c.719 0 1.469.016 2.188 0 .14 0 .265-.047.343-.156.172-.203.125-.547-.078-.688-.14-.094-.312-.062-.468-.062h-.876v-1.078c0-.141-.046-.344.032-.454.047-.109.156-.187.234-.265l.563-.516c.078-.094.515-.562.64-.531.094.047.14.172.203.234.547.672 1.579 2.094 1.985 2.61h-.453c-.11 0-.22 0-.313.031-.281.094-.36.484-.187.703.171.219.468.172.718.172h1.907c.093 0 .187 0 .28-.016a.471.471 0 0 0 .313-.546.386.386 0 0 0-.062-.141C8.5-.984 8.14-.906 7.875-.906c-.11 0-.25.015-.328-.063-.094-.062-1.984-2.578-1.984-2.578l-.47-.61c-.046-.062-.171-.171-.155-.25 0-.077.093-.124.125-.155.14-.125.265-.266.39-.375a69.068 69.068 0 0 0 1.5-1.407c.14-.125.156-.172.438-.172h.406c.11 0 .203 0 .297-.03.281-.095.344-.47.187-.704-.187-.234-.562-.172-.844-.172H5c-.125 0-.25 0-.344.047-.312.172-.297.656.016.813.11.078.266.046.406.046h.781l-3.046 2.86v-6.281c0-.079 0-.188-.016-.266-.125-.36-.422-.313-.844-.313H.97c-.188 0-.39.016-.485.204-.156.234-.046.578.204.671.14.047.312.032.453.032z"/></symbol><symbol overflow="visible" id="P"><path d="M1.734-6.516v4.375c0 .579.063 1.016.344 1.422.453.625 1.297.781 2.031.781.97 0 1.516-.25 2.125-.718 0 .203-.015.437.172.562.157.11.344.094.516.094h1.11c.171 0 .374.031.53-.063.25-.203.235-.625-.015-.78-.156-.11-.39-.063-.563-.063h-.703v-5.578c0-.47.078-.829-.375-.938-.172-.016-.36 0-.531 0h-.984c-.204 0-.438 0-.547.203-.157.25-.063.594.218.672.125.063.282.031.407.031h.765v3.157c0 .546.063 1.156-.25 1.64-.39.64-1.125.922-2.078.86-.39-.032-.844-.141-1.015-.532-.094-.203-.094-.453-.094-.671v-4.72c0-.187.015-.359-.125-.515-.156-.14-.328-.125-.516-.125H1c-.188 0-.39-.031-.547.094-.25.187-.234.594.031.75.157.11.36.062.532.062z"/></symbol><symbol overflow="visible" id="Q"><path d="M1.547-9.61v8.704h-.531c-.141 0-.266 0-.375.062-.297.172-.282.672.046.813.188.078.47.031.672.031h1.813c.11 0 .219 0 .328-.047.281-.156.313-.625.016-.797-.125-.062-.25-.062-.375-.062h-.547v-4.11h3.828v4.11H5.89c-.141 0-.266 0-.375.062-.297.172-.282.672.046.813.188.078.47.031.672.031h1.813c.11 0 .219 0 .328-.047.281-.156.297-.625.016-.797-.124-.062-.25-.062-.39-.062h-.531V-9.61H8c.14 0 .266 0 .39-.063.282-.172.266-.672-.062-.812-.187-.094-.453-.032-.672-.032H5.86c-.125 0-.234 0-.328.047-.297.156-.312.625-.015.797.109.063.234.063.375.063h.53v3.687H2.595V-9.61h.547c.125 0 .25 0 .375-.063.296-.172.265-.64-.016-.797-.11-.047-.219-.047-.328-.047H1.359c-.203 0-.484-.062-.671.032-.329.14-.344.64-.047.812.109.063.234.063.375.063z"/></symbol><symbol overflow="visible" id="R"><path d="M1.734-9.61v8.704h-.593c-.125 0-.266-.031-.391.047-.297.156-.297.64-.016.812.204.094.454.047.657.047h6.234c.469 0 .922.094 1-.344.047-.187.016-.406.016-.61v-1.124c0-.235.03-.469-.157-.625-.093-.094-.218-.11-.343-.11-.22 0-.422.063-.516.282-.063.156-.031.36-.031.531v1.094H2.797V-5h2.39v.438c0 .125 0 .234.063.343.172.297.766.297.938-.015.078-.172.046-.391.046-.563v-1.187c0-.22.047-.5-.062-.704-.188-.28-.75-.28-.922 0-.063.11-.063.235-.063.344v.438h-2.39V-9.61h4.422v.89c0 .156-.016.328.031.469.11.219.313.266.516.266.14 0 .28-.016.375-.125.14-.157.125-.36.125-.547v-1.031c0-.172.03-.391-.016-.547-.14-.36-.516-.282-.984-.282H1.39c-.188 0-.438-.062-.641.047-.297.156-.297.64-.016.813.125.062.266.047.407.047z"/></symbol><symbol overflow="visible" id="S"><path d="M2.547-.906c.172-.719.344-1.406.5-2.125h2.922c.156.703.328 1.406.5 2.125h-.422c-.125 0-.25 0-.36.062-.296.188-.265.672.063.813A.913.913 0 0 0 6.047 0H7.64c.187 0 .421.031.609-.016.266-.093.39-.453.234-.687-.14-.235-.375-.203-.609-.203-.094 0-.25.031-.313-.063a.785.785 0 0 1-.078-.203c-.156-.656-.453-1.969-.453-1.969l-.484-1.937c-.172-.703-1.031-4.344-1.172-4.86-.047-.234-.094-.53-.313-.687-.203-.14-.484-.11-.718-.11a.628.628 0 0 0-.563.297c-.094.204-.5 2-.5 2L2-3.155c-.047.234-.469 2.094-.531 2.187-.078.094-.235.063-.313.063-.25 0-.484-.031-.625.203C.375-.47.5-.11.781-.016.97.031 1.187 0 1.375 0h1.61c.093 0 .203 0 .28-.031.329-.14.376-.625.079-.813-.125-.062-.25-.062-.36-.062zM4.516-9.47c.343 1.906.843 3.672 1.234 5.531H3.266c.437-1.828.906-3.624 1.25-5.53z"/></symbol><symbol overflow="visible" id="T"><path d="M1.484-9.61v8.704h-.5c-.14 0-.265 0-.375.062-.312.188-.265.703.079.813.171.062.375.031.546.031h2.844c.453 0 .89.016 1.344-.11 1.797-.515 2.812-2.593 2.906-4.609.11-1.75-.344-3.703-1.672-4.953a3.203 3.203 0 0 0-1.36-.781c-.405-.11-.843-.063-1.25-.063H1.063c-.187 0-.375-.015-.53.11-.22.219-.173.625.124.765.094.032.219.032.328.032zM2.531-.905V-9.61h1.297c.86 0 1.266 0 1.86.453 1.406 1.047 2.125 3.875 1.218 6.14-.375.938-1.14 1.985-2.328 2.11-.219.015-.469 0-.703 0z"/></symbol><symbol overflow="visible" id="D"><path d="M4.484-7.422H2.688c-.25 0-.547-.047-.704.188-.171.265-.062.64.25.703.235.062.485.015.704.015h1.39c-.312 1.86-.656 3.704-.937 5.61H1.469c-.11 0-.219 0-.297.031-.422.14-.36.813.078.875.14.016.297 0 .453 0h4.375c.172 0 .344.016.5-.063.328-.203.297-.718-.094-.828-.203-.062-.453-.015-.687-.015h-1.36l.938-5.61h2.156c.266 0 .61.063.75-.25.125-.28-.015-.609-.328-.656-.25-.031-.547 0-.828 0H5.531c.047-.219.172-1.094.235-1.25.343-.781 1.28-1.094 2.062-.984 0 .11 0 .234.078.344.172.359.657.421.969.187a.759.759 0 0 0 .266-.594c0-.11-.032-.25-.079-.36-.28-.515-.968-.515-1.468-.515-.14 0-.282 0-.407.016-.937.11-1.906.578-2.328 1.437-.203.36-.343 1.282-.375 1.72z"/></symbol><symbol overflow="visible" id="E"><path d="M6.078-10.516a.786.786 0 0 0-.656.579c-.125.5.297.968.812.859a.833.833 0 0 0 .657-.672c.046-.438-.344-.875-.813-.766zm-.797 4c-.312 1.86-.656 3.704-.922 5.61H2.125c-.11 0-.219 0-.313.015-.437.141-.406.797.047.891.157.016.329 0 .485 0h4.765c.172 0 .36.031.516-.063.313-.203.266-.734-.094-.828-.093-.015-.203-.015-.281-.015H5.406c.282-1.516.485-3.016.766-4.532l.187-1.156c.032-.187.094-.39.016-.562-.14-.328-.5-.266-.797-.266H3.422c-.235 0-.516-.016-.656.219-.016.062-.032.094-.032.14-.046.266.094.5.344.547.25.047.516 0 .766 0z"/></symbol><symbol overflow="visible" id="F"><path d="M5.594-9.61c-.516 2.876-.938 5.797-1.438 8.704H1.813c-.11 0-.235-.031-.329.015-.437.094-.453.782 0 .875.172.032.36.016.532.016h5.359c.188 0 .375.016.531-.125.25-.219.157-.703-.203-.766-.11-.046-.219-.015-.312-.015H5.203c.047-.266 1.547-9.156 1.516-9.281-.11-.391-.516-.329-.828-.329H3.547c-.266 0-.563-.062-.719.204a.198.198 0 0 0-.062.14c-.063.25.078.516.343.563.282.03.579 0 .844 0z"/></symbol><symbol overflow="visible" id="G"><path d="M2.656-3.344h5.39c.376 0 .548-.094.579-.484.047-.235.078-.485.078-.719 0-.875-.219-1.797-.922-2.36-.422-.343-.906-.53-1.593-.593-2.641-.266-5.047 2.438-4.516 5.016.078.609.469 1.234.828 1.593C3.578.203 5.39.313 6.75-.297a3.105 3.105 0 0 0 1.297-1.031c.11-.172.265-.36.25-.578-.016-.297-.266-.407-.531-.407-.454 0-.485.297-.704.594a2.528 2.528 0 0 1-.953.672c-1 .406-2.25.203-2.953-.656-.328-.422-.531-.969-.5-1.64zm4.969-.89H2.828c.406-1.047 1.219-2 2.344-2.297.703-.188 1.61-.094 2.094.5.359.453.39 1 .359 1.797z"/></symbol><symbol overflow="visible" id="H"><path d="M2.438-.703c.156.14.312.265.5.375.671.375 1.453.437 2.203.375.656-.031 1.328-.172 1.921-.5.86-.484 1.532-1.578 1.079-2.563-.61-1.265-2.422-1.25-3.954-1.578-.093-.031-.156-.062-.25-.078-.39-.11-1.015-.375-.843-.89.312-.922 1.797-1.094 2.937-1.032.578.032 1.219.282 1.219.953 0 .141-.031.297 0 .438.11.297.5.36.75.266.203-.094.266-.266.297-.454L8.5-6.64c.047-.187.11-.421.047-.609a.483.483 0 0 0-.688-.203c-.14.078-.234.234-.28.375-.688-.375-1.282-.484-2.376-.422-.687.031-1.422.14-2.016.516-.687.406-1.234 1.203-.984 2.03.281.626.656.891 1.36 1.126 1.015.328 2.859.312 3.546.953.157.156.282.344.266.563C7.219-1.282 6.094-.938 5.062-.86c-.671.046-1.375 0-1.859-.516-.234-.25-.36-.594-.437-.922-.032-.172-.016-.36-.094-.515-.125-.235-.469-.266-.703-.188-.266.094-.297.344-.328.594l-.266 1.5c-.031.203-.125.5-.047.703.094.297.516.36.734.172.126-.11.329-.578.376-.672z"/></symbol><clipPath id="r"><path d="M237 149h235v106.121H237z"/></clipPath></defs><path d="M425.398 21.258H283.266a3.984 3.984 0 0 0-3.985 3.984v34.551a3.981 3.981 0 0 0 3.985 3.984h142.132c2.2 0 3.985-1.78 3.985-3.984v-34.55c0-2.2-1.785-3.985-3.985-3.985z" fill="#cfc" stroke-width="2.989" stroke="#80ff80" stroke-miterlimit="10"/><use xlink:href="#a" x="329.849" y="47.063"/><use xlink:href="#b" x="341.542" y="47.063"/><use xlink:href="#c" x="344.842" y="47.063"/><use xlink:href="#d" x="351.484" y="47.063"/><use xlink:href="#e" x="357.724" y="47.063"/><use xlink:href="#f" x="365.976" y="47.063"/><use xlink:href="#g" x="371.498" y="47.063"/><path d="M425.398 106.3H283.266a3.981 3.981 0 0 0-3.985 3.985v34.55c0 2.2 1.781 3.985 3.985 3.985h142.132c2.2 0 3.985-1.785 3.985-3.984v-34.55a3.984 3.984 0 0 0-3.985-3.985z" fill="#ccf" stroke-width="2.989" stroke="#99f" stroke-miterlimit="10"/><use xlink:href="#h" x="306.797" y="132.102"/><use xlink:href="#d" x="316.553" y="132.102"/><use xlink:href="#i" x="322.794" y="132.102"/><use xlink:href="#j" x="330.828" y="132.102"/><use xlink:href="#k" x="339.148" y="132.102"/><use xlink:href="#l" x="352.731" y="132.102"/><use xlink:href="#m" x="359.474" y="132.102"/><use xlink:href="#n" x="363.42" y="132.102"/><use xlink:href="#o" x="371.74" y="132.102"/><use xlink:href="#k" x="380.061" y="132.102"/><use xlink:href="#p" x="387.808" y="132.102"/><use xlink:href="#q" x="395.124" y="132.102"/><path d="M425.398 191.34H283.266a3.984 3.984 0 0 0-3.985 3.984v34.551c0 2.2 1.781 3.984 3.985 3.984h142.132c2.2 0 3.985-1.785 3.985-3.984v-34.55c0-2.2-1.785-3.985-3.985-3.985z" fill="#fcc"/><g clip-path="url(#r)"><path d="M425.398 191.34H283.266a3.984 3.984 0 0 0-3.985 3.984v34.551c0 2.2 1.781 3.984 3.985 3.984h142.132c2.2 0 3.985-1.785 3.985-3.984v-34.55c0-2.2-1.785-3.985-3.985-3.985z" fill="none" stroke-width="2.989" stroke="#f99" stroke-miterlimit="10"/></g><use xlink:href="#s" x="290.891" y="217.141"/><use xlink:href="#e" x="306.388" y="217.141"/><use xlink:href="#f" x="314.64" y="217.141"/><use xlink:href="#t" x="320.162" y="217.141"/><use xlink:href="#b" x="327.982" y="217.141"/><use xlink:href="#n" x="331.282" y="217.141"/><use xlink:href="#j" x="339.602" y="217.141"/><use xlink:href="#u" x="353.758" y="217.141"/><use xlink:href="#b" x="366.131" y="217.141"/><use xlink:href="#f" x="369.431" y="217.141"/><use xlink:href="#k" x="374.954" y="217.141"/><use xlink:href="#v" x="382.701" y="217.141"/><use xlink:href="#d" x="390.448" y="217.141"/><use xlink:href="#e" x="396.688" y="217.141"/><use xlink:href="#f" x="404.922" y="217.141"/><use xlink:href="#g" x="410.445" y="217.141"/><path d="M430.875 189.844c8.844-12.63 8.844-26.903 1.266-37.727" fill="none" stroke-width="1.494" stroke="#4c4c4c" stroke-miterlimit="10"/><path d="M431.305 150.926c.746 1.699 1.191 3.605 1.402 6.12.09-2.726 1.281-3.558 3.871-2.71-2.293-1.059-3.933-2.129-5.273-3.41z" stroke-width="1.494" stroke-linejoin="round" stroke="#4c4c4c" stroke-miterlimit="10"/><path d="M430.875 189.844c27.867-39.793 27.867-84.778 1.266-122.766" fill="none" stroke-width="1.494" stroke="#4c4c4c" stroke-miterlimit="10"/><path d="M431.305 65.887c.746 1.695 1.191 3.601 1.402 6.12.09-2.726 1.281-3.562 3.871-2.71-2.293-1.059-3.933-2.129-5.273-3.41z" stroke-width="1.494" stroke-linejoin="round" stroke="#4c4c4c" stroke-miterlimit="10"/><use xlink:href="#w" x="456.704" y="131.624"/><use xlink:href="#x" x="465.742" y="131.624"/><use xlink:href="#y" x="474.78" y="131.624"/><use xlink:href="#z" x="492.856" y="131.624"/><use xlink:href="#A" x="501.894" y="131.624"/><use xlink:href="#B" x="510.933" y="131.624"/><use xlink:href="#B" x="519.971" y="131.624"/><use xlink:href="#x" x="529.009" y="131.624"/><use xlink:href="#y" x="538.047" y="131.624"/><use xlink:href="#C" x="556.123" y="131.624"/><use xlink:href="#D" x="565.16" y="131.624"/><use xlink:href="#E" x="574.198" y="131.624"/><use xlink:href="#F" x="583.236" y="131.624"/><use xlink:href="#G" x="592.274" y="131.624"/><use xlink:href="#H" x="601.312" y="131.624"/><use xlink:href="#I" x="612.343" y="131.624"/><use xlink:href="#J" x="621.381" y="131.624"/><use xlink:href="#K" x="630.419" y="131.624"/><use xlink:href="#L" x="639.457" y="131.624"/><path d="M277.785 65.273c-27.863 39.793-27.863 84.778-1.262 122.77" fill="none" stroke-width="1.494" stroke="#4c4c4c" stroke-miterlimit="10"/><path d="M277.355 189.234c-.742-1.699-1.19-3.605-1.398-6.125-.09 2.727-1.281 3.563-3.875 2.711 2.297 1.059 3.934 2.133 5.273 3.414z" stroke-width="1.494" stroke-linejoin="round" stroke="#4c4c4c" stroke-miterlimit="10"/><use xlink:href="#w" x="14.976" y="130.906"/><use xlink:href="#x" x="24.014" y="130.906"/><use xlink:href="#y" x="33.052" y="130.906"/><use xlink:href="#z" x="51.128" y="130.906"/><use xlink:href="#M" x="60.166" y="130.906"/><use xlink:href="#N" x="69.205" y="130.906"/><use xlink:href="#z" x="78.243" y="130.906"/><use xlink:href="#O" x="87.281" y="130.906"/><use xlink:href="#A" x="96.319" y="130.906"/><use xlink:href="#P" x="105.357" y="130.906"/><use xlink:href="#y" x="114.395" y="130.906"/><use xlink:href="#Q" x="132.471" y="130.906"/><use xlink:href="#R" x="141.509" y="130.906"/><use xlink:href="#S" x="150.547" y="130.906"/><use xlink:href="#T" x="159.585" y="130.906"/><use xlink:href="#J" x="177.662" y="130.906"/><use xlink:href="#J" x="186.7" y="130.906"/><use xlink:href="#D" x="204.775" y="130.906"/><use xlink:href="#E" x="213.813" y="130.906"/><use xlink:href="#F" x="222.851" y="130.906"/><use xlink:href="#G" x="231.889" y="130.906"/><use xlink:href="#H" x="240.927" y="130.906"/><path d="M277.785 65.273c-8.84 12.63-8.84 26.903-1.262 37.727" fill="none" stroke-width="1.494" stroke="#4c4c4c" stroke-miterlimit="10"/><path d="M277.355 104.191c-.742-1.695-1.19-3.605-1.398-6.12-.09 2.726-1.281 3.558-3.875 2.71 2.297 1.059 3.934 2.13 5.273 3.41z" stroke-width="1.494" stroke-linejoin="round" stroke="#4c4c4c" stroke-miterlimit="10"/></svg>