<svg xmlns="http://www.w3.org/2000/svg" xmlns:xlink="http://www.w3.org/1999/xlink" width="907.087" height="529.133" viewBox="0 0 680.315 396.85"><defs><symbol overflow="visible" id="a"><path d="M1.375-11.953V0h1.203v-5.75H9.11V0h1.204v-11.953H9.108v5.297H2.58v-5.297z"/></symbol><symbol overflow="visible" id="b"><path d="M1.375-11.938V0h8.172v-.969H2.578V-5.75h6.219v-.906H2.578v-4.36h6.719v-.921z"/></symbol><symbol overflow="visible" id="c"><path d="M.36 0h.78l.313-.031c.516-1.125.875-2.39 1.344-3.563 1.703.031 3.562-.078 5.172.031l.14.22c.297.874.641 1.718.954 2.593.078.25.171.516.296.719.391.047.829.031 1.25.031-.296-.844-4.296-11.578-4.406-11.86-.016-.078-.062-.171-.14-.187-.11-.031-.204 0-.313 0h-.563c-.265 0-.359-.047-.437.235L.36 0zm5.046-10.844c.719 2.125 1.5 4.235 2.25 6.328H3.141l1.484-4.093z"/></symbol><symbol overflow="visible" id="d"><path d="M1.375-11.953V0h3.484c.547 0 1.094.031 1.625-.016a5.417 5.417 0 0 0 3.36-1.64c2.234-2.282 2.203-6.235.015-8.547-.78-.844-1.859-1.516-3.203-1.688-.64-.093-1.312-.062-1.968-.062zM2.563-.906v-10.125H4.78c.469 0 .938-.016 1.407.015a4.617 4.617 0 0 1 2.156.782c1.406.968 1.984 2.671 1.984 4.312 0 1.375-.375 2.781-1.39 3.766A4.663 4.663 0 0 1 6.203-.937c-.453.046-.922.03-1.36.03z"/></symbol><symbol overflow="visible" id="f"><path d="M1.36-6.594c.296-.14.53-.343.827-.484a4.333 4.333 0 0 1 1.47-.375c.234-.016.515-.047.75 0 .437.062.812.328 1.062.687.265.407.375.782.375 1.438v.766c-.828 0-1.657.062-2.453.28-1 .22-2.079.72-2.438 1.61-.375.86.016 2 .781 2.516.391.265.829.281 1.282.25.718-.063 1.437-.235 2.062-.61.297-.171.594-.39.766-.687h.015V0h1.079v-4.547c0-.5.046-1.031-.047-1.531-.11-.688-.532-1.25-1.032-1.656-.593-.438-1.265-.594-2.156-.532a4.969 4.969 0 0 0-2.078.532c-.094.03-.266.093-.313.187-.062.078-.015.188-.015.281.031.22.047.454.062.672zm4.484 2.547v1.313c0 .39.015.75-.219 1.093a1.794 1.794 0 0 1-.719.61c-.984.5-2.484.343-2.906-.485-.344-.609.016-1.312.516-1.703.734-.562 2.187-.828 3.328-.828z"/></symbol><symbol overflow="visible" id="g"><path d="M.36-3.11h4.984V0h1.078v-3.11H8.39v-.921H6.42v-7.375H5.5c-.313 0-.406-.016-.547.25C4.266-10.031.641-4.437.516-4.281c-.141.234-.157.218-.157.578zm5.03-7.359v6.438H1.485c.11-.235.297-.469.438-.703.875-1.329 2.922-4.485 3.344-5.454.062-.093.078-.203.125-.28z"/></symbol><symbol overflow="visible" id="h"><path d="M.625-11.297v.969h6.75l-.64.61a15.29 15.29 0 0 0-1.548 1.937 14.322 14.322 0 0 0-2.39 7.89h1.14c0-2.515.641-5.03 1.844-7.25.594-1.125 1.203-1.937 2.016-2.875.11-.109.266-.234.312-.375.032-.078.016-.203.016-.296v-.61z"/></symbol><symbol overflow="visible" id="i"><path d="M7.297-1.922c-.328.234-.61.5-.984.703-.797.422-2.047.64-2.97.203C2-1.703 1.642-3.375 1.829-4.75c.031-.281.078-.547.172-.813.375-1.125 1.328-2 2.875-1.828.828.079 1.234.204 1.89.579.126.062.22.156.36.187.016-.203.078-.438.11-.64.046-.282.046-.313-.204-.438-.203-.078-.39-.188-.593-.25-.797-.344-2.094-.453-3-.188-1.22.344-2.126 1.391-2.532 2.563C.72-5.047.672-4.484.672-3.906.687-2.094 1.922-.328 3.734.03c1 .203 2.157-.078 2.844-.437.172-.094.688-.406.781-.563.047-.078-.062-.953-.062-.953z"/></symbol><symbol overflow="visible" id="j"><path d="M1.39-8.672c.141-.219.25-.437.407-.64.36-.485.86-.86 1.422-1.094.89-.36 2.203-.39 2.906.406.625.703.36 1.797-.203 2.453-.516.61-1.188.906-2.188.953-.296.016-.562.047-.859.063v.86h1.188c1 0 1.656.155 2.203.75.953 1 .859 2.765-.188 3.687-.531.437-1.281.578-1.969.53C2.766-.812 1.58-1.515.797-2.624c-.094.188-.094.422-.125.61-.047.28-.047.28.125.5.5.671 1.469 1.296 2.25 1.515C4.422.406 6.03.219 7.094-.828c.203-.203.39-.422.547-.672.64-1 .656-2.313-.047-3.266-.297-.406-.672-.703-1.11-.953-.28-.172-.625-.343-.968-.375 1-.468 1.921-1.265 2.093-2.547.157-1.203-.546-1.953-1.265-2.375-1.125-.656-2.594-.625-3.75-.062a3.961 3.961 0 0 0-1.375 1.11c-.063.077-.328.374-.328.515 0 .094.078.172.125.234z"/></symbol><symbol overflow="visible" id="k"><path d="M1.11-11.953V0h1.093v-1.078h.016c.187.375.625.734.984.922 1.235.656 2.719 0 3.531-1.047 1.641-2.156.985-5.813-1.171-6.828-.844-.375-1.86-.203-2.625.312a4.172 4.172 0 0 0-.75.735v-4.97zm2.656 4.578c.812-.063 1.656.297 2.14.953.328.438.5.953.578 1.484.172 1.25.047 2.844-1.078 3.657-.187.14-.39.25-.625.328-.922.344-1.86.25-2.375-.563-.156-.28-.203-.296-.203-.703V-5.78c0-.172-.031-.39.031-.532.282-.578.922-1 1.532-1.062z"/></symbol><symbol overflow="visible" id="l"><path d="M1.25-7.906c.25-.969.656-2.063 1.64-2.5.422-.172.86-.203 1.313-.172.844.078 1.672.422 2.188 1.11a2.47 2.47 0 0 1 .437 1.765c-.203 1.797-1.953 3.094-3.094 4.047-.656.562-2.515 2.312-2.515 2.312l-.282.282C.781-.906.75-.906.75-.61V0h7.234v-.969H1.75C2.313-1.5 4.594-3.516 4.906-3.75c1-.813 2.125-1.625 2.719-2.797.672-1.344.375-3.031-.75-4.031-.688-.594-1.64-.89-2.547-.922-.844-.016-1.703.156-2.375.688C1.422-10.392 1-9.75.75-9.095c-.047.11-.125.281-.11.39.016.11.11.204.172.267.141.171.266.374.438.53z"/></symbol><symbol overflow="visible" id="m"><path d="M1.453-11.297v6.172h.64c.095 0 .22.016.282-.016.094-.062.14-.187.188-.25a2.38 2.38 0 0 1 .406-.39c.61-.516 1.797-.735 2.594-.328 1.078.515 1.296 1.875 1.203 2.937-.047.672-.25 1.297-.657 1.688-.906.968-2.437.984-3.562.421a3.683 3.683 0 0 1-1.36-1.234h-.015c-.047.094-.453.703-.453.797 0 .078.062.125.094.172A4.457 4.457 0 0 0 2.766 0C4.312.484 6.03.11 7.109-1.14c1.297-1.5 1.125-3.938-.375-5.25a3.059 3.059 0 0 0-1.812-.766c-1-.14-1.89.343-2.422.781v-4.016h4.89v-.906z"/></symbol><symbol overflow="visible" id="n"><path d="M1.672-10.36v.86c.953 0 1.594-.172 2.36-.5v9.14h-2.25V0h5.624v-.86H5.141V-11.5c-.407 0-.344.094-.657.344-.718.515-1.687.797-2.812.797z"/></symbol><symbol overflow="visible" id="o"><path d="M2.547-10.953c-.5.344-.844.812-1.094 1.344C.828-8.406.75-6.984.75-5.453c0 1.922.36 3.703 1.313 4.719.921.937 2.359 1.187 3.578.687.765-.297 1.312-.937 1.656-1.625.625-1.219.687-2.687.687-4.203 0-.484-.015-.953-.062-1.438-.125-1.156-.516-2.437-1.156-3.14-1.047-1.156-2.922-1.406-4.22-.5zm3.469.984c.796.86.875 2.516.875 4.078v.938c0 .781-.141 1.812-.313 2.406-.234.813-.64 1.39-1.437 1.75-.954.344-1.954.016-2.5-.734-.75-.985-.782-2.719-.782-4.25 0-1.453.016-3.047.72-4 .78-1.031 2.452-1.203 3.437-.188z"/></symbol><symbol overflow="visible" id="p"><path d="M6.797-5.688h.016c0 .22-.016.438-.016.641-.031 1.36-.39 2.969-1.563 3.813-.343.265-.875.5-1.39.53-.938.141-1.688-.312-2.219-.671l-.453.797a3.86 3.86 0 0 0 3.172.703c1.172-.266 2.11-1.156 2.703-2.172.89-1.562 1.11-3.453.766-5.625-.22-1.562-.891-3.062-2.282-3.625-.765-.312-1.718-.281-2.468.047-.72.344-1.344.953-1.75 1.625-.375.64-.516 1.36-.516 2.078 0 .625.062 1.234.265 1.813.329.812.985 1.734 1.766 2 .281.093.578.125.89.125a3.563 3.563 0 0 0 2.423-1.094c.218-.203.578-.688.656-.984zM4.203-10.64c.766-.046 1.531.25 1.984.922.204.328.329.719.407 1.094.265 1 .297 2.094-.282 3-.359.563-1.015 1.094-1.796 1.14-.579.048-1.188-.03-1.657-.39-.687-.531-.937-1.313-.937-2.438 0-1.015.047-1.812.594-2.468.375-.516.859-.75 1.687-.86z"/></symbol><symbol overflow="visible" id="q"><path d="M6.125-11.953v4.86c-.328-.36-.656-.704-1.094-.907-1.531-.64-3.015.188-3.781 1.547-.875 1.61-.766 3.75.281 5.266C2.266-.141 3.5.375 4.781-.095c.5-.187 1.11-.687 1.313-1.125h.015V0h1.11v-11.953zm-.063 5.531c.079.156.047.36.047.531v3.547c0 .39-.015.438-.234.75-.313.453-.797.782-1.36.844a2.474 2.474 0 0 1-2.156-1c-.28-.406-.437-.89-.515-1.36-.032-.203-.032-.374-.047-.562-.11-1.125.125-2.469 1.125-3.203.172-.11.36-.203.562-.281 1-.39 2.094-.282 2.579.734z"/></symbol><symbol overflow="visible" id="r"><path d="M3.219-6.11v.016c-1.063.313-1.969.89-2.39 1.89-.454 1.048-.141 2.329.624 3.157C2.25-.187 3.36.22 4.531.203 6.25.172 7.906-1.078 8.11-2.844a3.39 3.39 0 0 0-.015-.797C7.78-4.953 6.797-5.75 5.53-6.094l.422-.14c.734-.297 1.328-.72 1.703-1.407.578-1.109.016-2.39-.906-3.109-.938-.703-2.188-.89-3.328-.656C2.062-11.11.782-9.953.859-8.47c.032.516.266.938.516 1.25.406.485 1.172 1 1.844 1.11zm.875-4.53c.765-.047 1.703.078 2.265.671.657.703.688 1.985.032 2.703-.422.454-1.016.672-1.625.72-.844.077-1.797-.063-2.407-.72-.671-.734-.625-2.078.11-2.765.437-.422 1.047-.563 1.625-.61zm-.016 4.968c.813-.047 1.688.14 2.281.734.22.235.391.532.5.844.282.89.157 2.032-.515 2.719-.469.469-1.11.64-1.75.688-.766.046-1.672-.141-2.219-.72-.75-.827-.906-2.53-.016-3.5.454-.468 1.079-.702 1.72-.765z"/></symbol><symbol overflow="visible" id="s"><path d="M7.203-1.89c-.406.296-.516.437-1.016.702-1.062.532-2.296.61-3.187-.03-.86-.626-1.36-1.641-1.36-3.095h5.673c0-1.265-.282-2.375-1.016-3.14-.781-.781-2.031-1.016-3.078-.688-.39.11-.75.329-1.078.579-1.094.875-1.563 2.28-1.532 3.64C.641-2.14 1.86-.344 3.672.031 4.609.22 5.609.016 6.453-.406c.156-.094.734-.406.797-.563.047-.078-.047-.922-.047-.922zm-.797-3.08H1.72c.203-1.265 1.25-2.593 2.64-2.437 1.141.11 1.735.922 1.954 1.937.046.172.062.328.093.5z"/></symbol><symbol overflow="visible" id="t"><path d="M.875-2.188c-.031.282-.094.563-.14.844-.032.266-.11.328.109.469a8.006 8.006 0 0 0 1.812.766c1.61.468 3.469.515 4.89-.547.22-.172.423-.36.61-.578.438-.594.828-1.297.735-2.266-.125-1.234-.954-2.266-2.079-2.781-1.53-.688-4.015-.578-4.718-2.11-.531-1.187.422-2.218 1.484-2.593 1.047-.391 2.438-.25 3.328.171.407.188.75.47 1.14.704.032-.297.095-.563.157-.86.031-.187.078-.36-.125-.437l-.328-.172a6.813 6.813 0 0 0-1.453-.453c-1.547-.297-3.328-.125-4.5 1.031-.594.578-1.094 1.375-.89 2.563.25 1.218 1.218 2 2.202 2.374.594.22 1.25.344 1.86.5.375.063.75.157 1.11.282.937.343 1.734 1.031 1.734 2.297C7.718-1.891 6.75-1.11 5.733-.86 4.422-.531 2.875-1 1.984-1.47c-.406-.203-.75-.484-1.109-.718z"/></symbol><symbol overflow="visible" id="u"><path d="M1.86-10.453v2.328H.186v.86h1.657v4.609c0 .765-.047 1.672.453 2.312.281.375.687.485 1.281.438.5-.047 1-.14 1.469-.313.156-.078.719-.312.797-.437.031-.063-.203-.828-.203-.828l-.407.312c-.53.328-1.593.672-2.046.047-.391-.531-.297-1.313-.297-1.938v-4.203h2.671v-.859H2.892v-2.328z"/></symbol><symbol overflow="visible" id="v"><path d="M6.094-2.063h.015v1.594c0 .485 0 .953-.156 1.422-.25.61-.703 1.188-1.437 1.281-.204.016-.438 0-.641-.015-1.125-.031-1.86-.36-2.75-.75v.656c0 .313.047.344.375.438.875.359 2.453.718 3.547.453C6.25 2.703 7.125 1.562 7.219.187c.015-.234 0-.5 0-.734v-7.687H6.125v1.375c-.25-.422-.531-.813-.984-1.094-1.204-.719-2.829.062-3.5 1C.53-5.593.328-3.5 1.203-1.984c.172.296.375.578.625.812.828.813 2.234 1.234 3.25.516.422-.281.89-.906 1.016-1.406zM4.39-7.375c.156 0 .328 0 .484.047.625.11.969.672 1.172 1.219.125.375.078.78.078 1.187 0 .86-.016 1.75-.313 2.563-.203.609-.625 1.14-1.296 1.203a2.395 2.395 0 0 1-.672-.063c-1.047-.25-1.781-1.14-2-2.172-.313-1.5.422-3.328 1.937-3.843.203-.063.406-.125.61-.141z"/></symbol><symbol overflow="visible" id="w"><path d="M5.89 3.828c-.14-.156-.312-.297-.468-.437-.14-.125-.25-.25-.375-.391-1.719-1.89-2.625-4.922-2.484-8.14.078-1.766.421-3.563 1.25-5.141.374-.703 1.03-1.703 1.609-2.203.156-.141.328-.282.469-.438h-.563c-.094 0-.219-.015-.297.031-.203.094-.718.61-.797.688-1.656 1.64-2.64 4.14-2.765 7.062-.094 2.079.25 4.188 1.187 6.047a8.466 8.466 0 0 0 1.61 2.25c.171.172.562.547.765.656.078.032.203.016.297.016z"/></symbol><symbol overflow="visible" id="x"><path d="M1.375-11.953V0h1.203v-11.953z"/></symbol><symbol overflow="visible" id="y"><path d="M2.172-6.406h-.016v-1.719H1.11V0h1.094v-3.766c0-.843-.047-1.703.328-2.5.188-.39.485-.75.875-.953.328-.156.672-.172 1.031-.14.516.046 1.016.171 1.344.609.313.39.328.906.328 1.39V0h1.11v-4.61c0-.859.078-1.812-.328-2.593-.329-.61-.97-.906-1.641-1a2.95 2.95 0 0 0-1.047.031c-.89.188-1.719.906-2.031 1.766z"/></symbol><symbol overflow="visible" id="z"><path d="M-.031-8.125l1.765 2.219 1.407 1.703v.016l-.438.53L-.14 0c.407 0 .813 0 1.188-.016l.234-.28 2.313-3.267h.015C4.484-2.375 5.344-1.171 6.25-.03c.36.046.797.03 1.203.03L5.36-2.625a61.897 61.897 0 0 0-1.28-1.563v-.015l.593-.719L7.14-8.125c-.391 0-.782 0-1.172.016l-.219.25L3.61-5c-.813-1.016-1.594-2.094-2.438-3.094-.36-.047-.797-.031-1.203-.031z"/></symbol><symbol overflow="visible" id="A"><path d="M.86-12.922c.14.156.312.297.468.438.14.125.25.265.375.39 1.5 1.735 2.36 4.063 2.484 6.953.079 2.125-.25 4.344-1.218 6.282A8.32 8.32 0 0 1 1.703 3c-.125.14-.234.266-.375.39-.156.141-.328.282-.469.438h.563c.094 0 .219.016.297-.015.203-.11.718-.626.797-.704C4.172 1.47 5.14-1.03 5.28-3.937 5.374-6.031 5.03-8.141 4.093-10a8.466 8.466 0 0 0-1.61-2.25c-.171-.172-.562-.547-.765-.64-.078-.047-.203-.032-.297-.032z"/></symbol><symbol overflow="visible" id="B"><path d="M.125-11.953L3.672.062h1.203c.86-3.203 2.61-8.609 3.094-10.906h.015c.016.313.125.594.188.89.437 1.688 2 6.985 2 6.985l.812 2.703c.016.094.032.22.11.282.047.093.234.046.328.046h.906l3.547-12.015c-.344 0-.719-.016-1.016.031l-.078.203-.672 2.25C13.33-6.688 12.438-4 11.75-1.109h-.031c-.031-.344-.14-.688-.235-1.032l-.468-1.687c-.172-.578-2.313-8-2.391-8.063-.047-.093-.219-.062-.313-.062h-.89c-.266.953-.547 1.86-.828 2.797C5.859-6.47 5-3.891 4.359-1.11l-.156-.72c-.672-2.546-2.86-9.89-2.86-9.89-.046-.25-.124-.234-.405-.234z"/></symbol><symbol overflow="visible" id="C"><path d="M1.844-7.219C.312-5.703.14-3.062 1.469-1.359c.187.25.406.484.672.671a3.592 3.592 0 0 0 2.64.782c1.735-.219 2.922-1.61 3.282-3.078.484-2.047-.532-4.329-2.438-5.063-1.469-.594-2.953 0-3.781.828zm4.297.453c.828.735.984 1.922.921 2.985-.046.797-.28 1.64-.843 2.25-.938 1-2.657 1-3.657.031-.515-.547-.828-1.344-.874-2.281-.094-1.406.265-2.875 1.64-3.438 1.016-.437 2.188-.11 2.813.453z"/></symbol><symbol overflow="visible" id="D"><path d="M2.156-5.953h-.015v-2.172H1.109V0h1.079v-3.922c0-.265 0-.515.03-.781.25-1.469 1.516-2.547 3.188-2.547v-.984a3.413 3.413 0 0 0-2.765 1.421c-.204.25-.407.547-.485.86z"/></symbol><symbol overflow="visible" id="E"><path d="M1.14-11.953V0h1c.016-.938-.046-1.906.016-2.813.438-.546.953-1.015 1.438-1.53.656 1.077 1.375 2.077 2.078 3.124.266.39.516.828.812 1.188.344.047.782.031 1.172.031l-.718-1.11L4.28-5.046v-.016l2.97-3.062c-.453 0-.89 0-1.313.016l-.375.359-3.39 3.516v-7.72z"/></symbol><symbol overflow="visible" id="F"><path d="M1.11-11.953v1.094h1.077v-1.094zm0 3.828V0h1.077v-8.125z"/></symbol><symbol overflow="visible" id="G"><path d="M.125-8.125c.094.328.813 2.063.828 2.11L3-.736l.172.422c.094.25.14.282.031.547l-.187.5c-.157.422-.329.844-.657 1.11-.578.484-1.515.203-2.218.047l.078.968c.328.047.656.079.984.11.75.078 1.219-.094 1.672-.469.563-.484.844-1.156 1.11-1.844l.53-1.484 1.75-4.766c.298-.86.657-1.672.938-2.531h-.781c-.078 0-.219-.031-.297.031-.031.047-.047.125-.063.172l-.14.36c-.172.453-.328.875-.484 1.328l-1 2.812c-.25.75-.547 1.531-.688 2.313a19.56 19.56 0 0 0-.719-2.297C2.812-4 1.47-7.594 1.297-7.937c-.078-.188-.14-.188-.406-.188z"/></symbol><symbol overflow="visible" id="H"><path d="M2.172-6.406h-.016v-1.719H1.11V0h1.094v-3.781c0-.844-.047-1.688.328-2.469.328-.672.89-1.203 1.906-1.11.516.048 1.032.173 1.36.61.312.39.328.906.328 1.39V0h1.11v-3.781c0-.844-.048-1.688.327-2.469.329-.672.891-1.203 1.907-1.11.515.048 1.031.173 1.36.61.312.39.327.906.327 1.39V0h1.11v-4.563c0-.828.093-1.75-.266-2.515-.36-.703-.953-1.078-1.89-1.14a3.028 3.028 0 0 0-1.61.296c-.594.344-1.047.906-1.313 1.531-.125-.546-.265-.921-.64-1.28-.406-.36-.938-.5-1.453-.548-1.25-.094-2.047.422-2.578 1.188-.141.203-.282.406-.344.625z"/></symbol><symbol overflow="visible" id="I"><path d="M.531-1.703C.5-1.47.453-1.234.406-1 .375-.812.328-.719.5-.64c.703.421 1.547.64 2.547.734 1.125.093 2.531-.157 3.078-1.266.156-.312.25-.656.266-1 .062-1.234-.922-2.031-1.766-2.328-.938-.36-2.234-.234-2.89-.953a1.107 1.107 0 0 1-.032-1.406c.688-.954 2.906-.547 3.797-.11.125.063.25.157.406.188l.157-.938c-.813-.36-1.516-.562-2.641-.562-.953 0-1.844.219-2.39.781-.548.563-.735 1.516-.407 2.234.313.688.953 1.141 1.672 1.36 1.015.36 2.156.187 2.828 1.015.39.485.313 1.204-.11 1.641-.827.75-2.593.469-3.546.063-.328-.141-.625-.344-.938-.516z"/></symbol><symbol overflow="visible" id="e"><path d="M1.906-5.969c-.343.64.032 1.438.766 1.594a1.1 1.1 0 0 0 .86-.203c.515-.375.577-1.14.14-1.625a1.175 1.175 0 0 0-.578-.328c-.547-.078-1 .172-1.188.562z"/></symbol><symbol overflow="visible" id="J"><path d="M5.688-6.938h-.016c-.25-.25-.75-.421-1.094-.5-1.187-.218-2.422.313-3.031 1.375a2.83 2.83 0 0 0-.266.72c-.14.718.032 1.468.344 1.968a.68.68 0 0 1 .125.234c0 .094-.063.157-.094.235-.328.64-.36 1.594.203 2.187v.016c-.234.14-.484.297-.671.484C.578.391.265 1.453.703 2.25c.547 1.031 2.063 1.563 3.36 1.64.937.063 1.906-.046 2.765-.406.766-.328 1.516-.906 1.672-1.765.016-.14.016-.297.016-.422a2.204 2.204 0 0 0-.188-.781c-.515-1.157-1.906-1.47-3.047-1.5-.187 0-.36-.016-.547-.016h-.718C3.687-1 3.328-.969 3-1.016c-.469-.062-.734-.578-.703-1.015.015-.172.062-.344.125-.5.234.125.453.265.719.328a2.9 2.9 0 0 0 2.406-.313 2.718 2.718 0 0 0 1.156-2.906c-.078-.297-.187-.64-.406-.86v-.015a2.667 2.667 0 0 1 1.281-.344.58.58 0 0 0 .063.235c.187.312.64.375.921.156a.585.585 0 0 0 .204-.453c.015-.484-.391-.75-.829-.828-.562-.094-1.187.031-1.703.265-.187.079-.39.172-.546.329zm-.657.688c1 .781.907 2.422-.187 3.063-.61.328-1.344.296-1.86-.126-1.015-.765-.921-2.437.204-3.078.593-.312 1.343-.25 1.843.141zM2.984-.125c.422-.031.875 0 1.297 0 1.063 0 2.125 0 2.813.484.375.266.656.829.515 1.297-.046.203-.203.39-.359.532-.594.53-1.438.734-2.188.812-1.25.11-2.64-.172-3.343-.844-.485-.484-.438-1.172.093-1.75.313-.297.735-.5 1.172-.531z"/></symbol><symbol overflow="visible" id="K"><path d="M4.047-10.36c-.484.376-.281 1.172.328 1.282a.632.632 0 0 0 .578-.14c.5-.376.313-1.173-.281-1.298a.687.687 0 0 0-.625.157zm.156 3.844v5.61H2.047c-.094 0-.203-.031-.313.015-.437.11-.406.797.047.875.14.032.344.016.485.016h4.812c.172 0 .36.016.5-.094.297-.203.203-.719-.156-.797-.219-.062-.5-.015-.719-.015H5.25v-5.719c0-.172.031-.406-.047-.578-.172-.281-.547-.219-.828-.219H2.25c-.25 0-.531-.016-.656.266-.016.047-.032.078-.032.125-.03.25.125.484.36.515.266.047.516 0 .781 0z"/></symbol><symbol overflow="visible" id="L"><path d="M2.703-7.422H1.422c-.203 0-.438-.031-.64.016C.468-7.36.343-6.97.5-6.72c.14.235.375.203.625.203h1.578v3.985c0 .281-.015.547 0 .828.047.453.235.89.578 1.203.406.328 1.031.563 1.64.563 1.22.046 2.813-.438 2.813-2.016 0-.188.032-.406-.015-.594-.125-.36-.766-.422-.969-.11-.094.126-.063.282-.063.423 0 .234.016.484-.093.703-.313.625-1.157.734-1.766.672-.25-.032-.5-.11-.703-.266-.469-.36-.375-.969-.375-1.516v-3.875h2.813c.25 0 .578.063.734-.218a.294.294 0 0 0 .031-.125c.031-.047.031-.11.031-.172 0-.047-.03-.078-.046-.125-.125-.328-.532-.266-.829-.266H3.75v-1.344c0-.187.031-.421-.078-.593-.203-.282-.813-.25-.938.093-.062.172-.03.422-.03.61z"/></symbol><symbol overflow="visible" id="M"><path d="M3.766-5.953H3.75v-.86c0-.203 0-.39-.156-.5-.188-.156-.485-.109-.703-.109H1.219c-.235 0-.485.016-.563.281-.11.25.016.547.297.61.188.062.406.015.594.015h1.156v5.61H1.5c-.188 0-.438-.047-.61.031-.343.14-.374.672-.03.828.156.078.343.047.5.047h4.202c.141 0 .297.016.422 0 .454-.063.5-.75.079-.89-.11-.016-.204-.016-.313-.016h-2V-2.72c0-.437-.016-.875.078-1.312.156-.766.594-1.5 1.235-1.985.375-.28 1.015-.562 1.625-.562.125 0 .28.016.421.016 0 .125.016.25.079.359.187.406.75.469 1.046.14.172-.187.188-.468.11-.703-.188-.593-.89-.718-1.422-.718-.938 0-1.813.25-2.531.859-.22.188-.485.406-.625.672z"/></symbol><symbol overflow="visible" id="N"><path d="M2.094-3.344h5.328c.14 0 .281 0 .39-.078.157-.125.172-.297.172-.469 0-1.53-.656-2.812-1.78-3.312-1.329-.578-2.845-.344-3.845.516C.953-5.5.61-3.345 1.563-1.782c.171.297.406.578.656.812C3.829.5 6.688.391 7.75-1.25c.11-.172.25-.438.234-.656-.03-.297-.28-.407-.546-.407a.504.504 0 0 0-.329.094c-.171.125-.203.36-.312.531a1.818 1.818 0 0 1-.75.625c-1.36.594-3.016-.093-3.672-1.406a2.399 2.399 0 0 1-.281-.875zm4.828-.89H2.094c.203-.829.437-1.36 1.078-1.86 1-.781 2.64-.703 3.344.453.25.422.359.907.406 1.407z"/></symbol><symbol overflow="visible" id="O"><path d="M2.297-.688c.203.157.406.313.625.407.672.312 1.422.39 2.156.328C5.968 0 6.891-.234 7.36-.797c.547-.594.735-1.5.297-2.219-.281-.5-.797-.828-1.343-1.03-.922-.345-1.954-.36-2.922-.579-.563-.125-1.36-.438-1.22-1.063.079-.39.517-.609.876-.734.562-.187 1.219-.219 1.828-.172.672.063 1.297.313 1.422.985.047.156.016.343.094.484.14.234.515.281.75.172.234-.11.25-.328.25-.563v-1.25c0-.171.03-.39-.079-.546-.125-.235-.453-.282-.671-.125a.555.555 0 0 0-.204.343 5.391 5.391 0 0 0-.75-.312c-1.109-.266-2.593-.078-3.375.297-.765.359-1.296 1.203-.984 2.046a.901.901 0 0 0 .188.391c.656.89 2.046 1.016 3.312 1.203.266.063.563.094.844.188.547.14 1.36.484 1.312 1.187a.708.708 0 0 1-.046.25c-.235.719-1.079.938-1.938.985-.781.046-1.61-.047-2.14-.688-.204-.25-.36-.5-.47-.797-.062-.172-.078-.39-.203-.531-.156-.188-.5-.203-.703-.11-.265.126-.25.391-.25.626v1.5c0 .203-.046.5.063.687.125.281.547.328.75.11.14-.157.187-.438.25-.625z"/></symbol><symbol overflow="visible" id="P"><path d="M1.11-5.625c-.25.266-.141.719.202.86.172.062.36.03.532.03H7.25c.188 0 .39.016.563-.093.421-.25.265-.906-.22-.969-.155-.016-.312 0-.468 0H1.672c-.25 0-.438 0-.563.172z"/></symbol><symbol overflow="visible" id="Q"><path d="M4.484-7.422H2.688c-.25 0-.547-.047-.704.188-.171.265-.062.64.25.703.235.062.485.015.704.015h1.39c-.312 1.86-.656 3.704-.937 5.61H1.469c-.11 0-.219 0-.297.031-.422.14-.36.813.078.875.14.016.297 0 .453 0h4.375c.172 0 .344.016.5-.063.328-.203.297-.718-.094-.828-.203-.062-.453-.015-.687-.015h-1.36l.938-5.61h2.156c.266 0 .61.063.75-.25.125-.28-.015-.609-.328-.656-.25-.031-.547 0-.828 0H5.531c.047-.219.172-1.094.235-1.25.343-.781 1.28-1.094 2.062-.984 0 .11 0 .234.078.344.172.359.657.421.969.187a.759.759 0 0 0 .266-.594c0-.11-.032-.25-.079-.36-.28-.515-.968-.515-1.468-.515-.14 0-.282 0-.407.016-.937.11-1.906.578-2.328 1.437-.203.36-.343 1.282-.375 1.72z"/></symbol><symbol overflow="visible" id="R"><path d="M6.078-10.516a.786.786 0 0 0-.656.579c-.125.5.297.968.812.859a.833.833 0 0 0 .657-.672c.046-.438-.344-.875-.813-.766zm-.797 4c-.312 1.86-.656 3.704-.922 5.61H2.125c-.11 0-.219 0-.313.015-.437.141-.406.797.047.891.157.016.329 0 .485 0h4.765c.172 0 .36.031.516-.063.313-.203.266-.734-.094-.828-.093-.015-.203-.015-.281-.015H5.406c.282-1.516.485-3.016.766-4.532l.187-1.156c.032-.187.094-.39.016-.562-.14-.328-.5-.266-.797-.266H3.422c-.235 0-.516-.016-.656.219-.016.062-.032.094-.032.14-.046.266.094.5.344.547.25.047.516 0 .766 0z"/></symbol><symbol overflow="visible" id="S"><path d="M5.594-9.61c-.516 2.876-.938 5.797-1.438 8.704H1.813c-.11 0-.235-.031-.329.015-.437.094-.453.782 0 .875.172.032.36.016.532.016h5.359c.188 0 .375.016.531-.125.25-.219.157-.703-.203-.766-.11-.046-.219-.015-.312-.015H5.203c.047-.266 1.547-9.156 1.516-9.281-.11-.391-.516-.329-.828-.329H3.547c-.266 0-.563-.062-.719.204a.198.198 0 0 0-.062.14c-.063.25.078.516.343.563.282.03.579 0 .844 0z"/></symbol><symbol overflow="visible" id="T"><path d="M2.656-3.344h5.39c.376 0 .548-.094.579-.484.047-.235.078-.485.078-.719 0-.875-.219-1.797-.922-2.36-.422-.343-.906-.53-1.593-.593-2.641-.266-5.047 2.438-4.516 5.016.078.609.469 1.234.828 1.593C3.578.203 5.39.313 6.75-.297a3.105 3.105 0 0 0 1.297-1.031c.11-.172.265-.36.25-.578-.016-.297-.266-.407-.531-.407-.454 0-.485.297-.704.594a2.528 2.528 0 0 1-.953.672c-1 .406-2.25.203-2.953-.656-.328-.422-.531-.969-.5-1.64zm4.969-.89H2.828c.406-1.047 1.219-2 2.344-2.297.703-.188 1.61-.094 2.094.5.359.453.39 1 .359 1.797z"/></symbol><symbol overflow="visible" id="U"><path d="M2.438-.703c.156.14.312.265.5.375.671.375 1.453.437 2.203.375.656-.031 1.328-.172 1.921-.5.86-.484 1.532-1.578 1.079-2.563-.61-1.265-2.422-1.25-3.954-1.578-.093-.031-.156-.062-.25-.078-.39-.11-1.015-.375-.843-.89.312-.922 1.797-1.094 2.937-1.032.578.032 1.219.282 1.219.953 0 .141-.031.297 0 .438.11.297.5.36.75.266.203-.094.266-.266.297-.454L8.5-6.64c.047-.187.11-.421.047-.609a.483.483 0 0 0-.688-.203c-.14.078-.234.234-.28.375-.688-.375-1.282-.484-2.376-.422-.687.031-1.422.14-2.016.516-.687.406-1.234 1.203-.984 2.03.281.626.656.891 1.36 1.126 1.015.328 2.859.312 3.546.953.157.156.282.344.266.563C7.219-1.282 6.094-.938 5.062-.86c-.671.046-1.375 0-1.859-.516-.234-.25-.36-.594-.437-.922-.032-.172-.016-.36-.094-.515-.125-.235-.469-.266-.703-.188-.266.094-.297.344-.328.594l-.266 1.5c-.031.203-.125.5-.047.703.094.297.516.36.734.172.126-.11.329-.578.376-.672z"/></symbol></defs><path d="M542.543 81.34h-57.09a3.986 3.986 0 0 0-3.984 3.984v48.727a3.986 3.986 0 0 0 3.984 3.984h57.09a3.984 3.984 0 0 0 3.984-3.984V85.324a3.982 3.982 0 0 0-3.984-3.984z" fill="#dfdfdf" stroke-width="2.989" stroke="#bfbfbf" stroke-miterlimit="10"/><use xlink:href="#a" x="491.401" y="101.493"/><use xlink:href="#b" x="503.094" y="101.493"/><use xlink:href="#c" x="513.244" y="101.493"/><use xlink:href="#d" x="524.219" y="101.493"/><use xlink:href="#e" x="72.986" y="171.27"/><use xlink:href="#e" x="82.177" y="171.27"/><use xlink:href="#e" x="91.347" y="171.27"/><path d="M185.305 152.363H128.21a3.984 3.984 0 0 0-3.984 3.985v20.375a3.984 3.984 0 0 0 3.984 3.984h57.094a3.983 3.983 0 0 0 3.984-3.984v-20.375a3.984 3.984 0 0 0-3.984-3.985z" fill="#cfc" stroke-width="2.989" stroke="#80ff80" stroke-miterlimit="10"/><use xlink:href="#f" x="135.743" y="172.178"/><use xlink:href="#g" x="143.777" y="172.178"/><use xlink:href="#h" x="152.528" y="172.178"/><use xlink:href="#i" x="161.279" y="172.178"/><use xlink:href="#j" x="169.026" y="172.178"/><path d="M122.73 166.535h-17.62" fill="none" stroke-width="1.494" stroke="#80ff80" stroke-miterlimit="10"/><path d="M101.473 166.535l5.816 2.91-2.18-2.91 2.18-2.91" fill="#80ff80"/><path d="M274.613 152.363h-57.09a3.984 3.984 0 0 0-3.988 3.985v20.375a3.984 3.984 0 0 0 3.988 3.984h57.09c2.2 0 3.985-1.781 3.985-3.984v-20.375a3.984 3.984 0 0 0-3.985-3.985z" fill="#cfc" stroke-width="2.989" stroke="#80ff80" stroke-miterlimit="10"/><use xlink:href="#k" x="224.909" y="172.513"/><use xlink:href="#j" x="233.229" y="172.513"/><use xlink:href="#l" x="241.98" y="172.513"/><use xlink:href="#m" x="250.73" y="172.513"/><use xlink:href="#i" x="259.481" y="172.513"/><path d="M212.043 166.535h-17.625" fill="none" stroke-width="1.494" stroke="#80ff80" stroke-miterlimit="10"/><path d="M190.781 166.535l5.82 2.91-2.183-2.91 2.184-2.91" fill="#80ff80"/><path d="M363.922 152.363h-57.09a3.984 3.984 0 0 0-3.984 3.985v20.375a3.984 3.984 0 0 0 3.984 3.984h57.09a3.984 3.984 0 0 0 3.988-3.984v-20.375a3.984 3.984 0 0 0-3.988-3.985z" fill="#cfc" stroke-width="2.989" stroke="#80ff80" stroke-miterlimit="10"/><use xlink:href="#i" x="314.218" y="172.513"/><use xlink:href="#n" x="321.965" y="172.513"/><use xlink:href="#o" x="330.716" y="172.513"/><use xlink:href="#k" x="339.466" y="172.513"/><use xlink:href="#p" x="347.786" y="172.513"/><path d="M301.352 166.535H283.73" fill="none" stroke-width="1.494" stroke="#80ff80" stroke-miterlimit="10"/><path d="M280.094 166.535l5.816 2.91-2.18-2.91 2.18-2.91" fill="#80ff80"/><path d="M453.234 152.363h-57.09a3.984 3.984 0 0 0-3.988 3.985v20.375a3.984 3.984 0 0 0 3.989 3.984h57.09a3.983 3.983 0 0 0 3.984-3.984v-20.375a3.984 3.984 0 0 0-3.985-3.985z" fill="#cfc" stroke-width="2.989" stroke="#80ff80" stroke-miterlimit="10"/><use xlink:href="#q" x="403.384" y="172.513"/><use xlink:href="#f" x="411.704" y="172.513"/><use xlink:href="#p" x="419.739" y="172.513"/><use xlink:href="#r" x="428.489" y="172.513"/><use xlink:href="#m" x="437.24" y="172.513"/><path d="M390.664 166.535H373.04" fill="none" stroke-width="1.494" stroke="#80ff80" stroke-miterlimit="10"/><path d="M369.402 166.535l5.82 2.91-2.183-2.91 2.184-2.91" fill="#80ff80"/><path d="M542.543 152.363h-57.09a3.984 3.984 0 0 0-3.984 3.985v20.375a3.984 3.984 0 0 0 3.984 3.984h57.09a3.981 3.981 0 0 0 3.984-3.984v-20.375a3.981 3.981 0 0 0-3.984-3.985z" fill="#cfc" stroke-width="2.989" stroke="#80ff80" stroke-miterlimit="10"/><use xlink:href="#s" x="492.836" y="172.513"/><use xlink:href="#q" x="500.583" y="172.513"/><use xlink:href="#g" x="508.903" y="172.513"/><use xlink:href="#r" x="517.654" y="172.513"/><use xlink:href="#p" x="526.404" y="172.513"/><path d="M479.973 166.535h-17.621" fill="none" stroke-width="1.494" stroke="#80ff80" stroke-miterlimit="10"/><path d="M458.715 166.535l5.816 2.91-2.18-2.91 2.18-2.91" fill="#80ff80"/><path d="M411.223 219.684H269.09a3.987 3.987 0 0 0-3.985 3.988v34.547a3.987 3.987 0 0 0 3.985 3.988h142.133a3.987 3.987 0 0 0 3.984-3.988v-34.547a3.987 3.987 0 0 0-3.984-3.988z" fill="#ccf" stroke-width="2.989" stroke="#99f" stroke-miterlimit="10"/><use xlink:href="#t" x="292.624" y="245.488"/><use xlink:href="#u" x="302.38" y="245.488"/><use xlink:href="#f" x="308.621" y="245.488"/><use xlink:href="#v" x="316.655" y="245.488"/><use xlink:href="#s" x="324.975" y="245.488"/><use xlink:href="#w" x="338.558" y="245.488"/><use xlink:href="#x" x="345.301" y="245.488"/><use xlink:href="#y" x="349.247" y="245.488"/><use xlink:href="#q" x="357.567" y="245.488"/><use xlink:href="#s" x="365.888" y="245.488"/><use xlink:href="#z" x="373.635" y="245.488"/><use xlink:href="#A" x="380.951" y="245.488"/><path d="M411.223 283.465H269.09a3.986 3.986 0 0 0-3.985 3.984V322a3.984 3.984 0 0 0 3.985 3.984h142.133a3.982 3.982 0 0 0 3.984-3.984v-34.55c0-2.2-1.785-3.985-3.984-3.985z" fill="#fcc" stroke-width="2.989" stroke="#f99" stroke-miterlimit="10"/><use xlink:href="#B" x="276.718" y="309.267"/><use xlink:href="#C" x="292.215" y="309.267"/><use xlink:href="#D" x="300.467" y="309.267"/><use xlink:href="#E" x="305.989" y="309.267"/><use xlink:href="#F" x="313.809" y="309.267"/><use xlink:href="#y" x="317.109" y="309.267"/><use xlink:href="#v" x="325.429" y="309.267"/><use xlink:href="#d" x="339.585" y="309.267"/><use xlink:href="#F" x="351.958" y="309.267"/><use xlink:href="#D" x="355.258" y="309.267"/><use xlink:href="#s" x="360.781" y="309.267"/><use xlink:href="#i" x="368.528" y="309.267"/><use xlink:href="#u" x="376.275" y="309.267"/><use xlink:href="#C" x="382.515" y="309.267"/><use xlink:href="#D" x="390.749" y="309.267"/><use xlink:href="#G" x="396.272" y="309.267"/><path d="M542.543 109.688h-57.09a3.986 3.986 0 0 0-3.984 3.984v20.379a3.986 3.986 0 0 0 3.984 3.984h57.09a3.984 3.984 0 0 0 3.984-3.984v-20.38a3.982 3.982 0 0 0-3.984-3.983z" fill="#ffdfbf" stroke-width="2.989" stroke="#ffbf80" stroke-miterlimit="10"/><use xlink:href="#H" x="490.232" y="129.088"/><use xlink:href="#f" x="503.574" y="129.088"/><use xlink:href="#I" x="511.608" y="129.088"/><use xlink:href="#u" x="518.25" y="129.088"/><use xlink:href="#s" x="524.491" y="129.088"/><use xlink:href="#D" x="532.238" y="129.088"/><path d="M514 139.527v7.703" fill="none" stroke-width="1.494" stroke="#ffbf80" stroke-miterlimit="10"/><path d="M514 150.867l2.906-5.816-2.906 2.18-2.91-2.18" fill="#ffbf80"/><path d="M185.305 109.688H128.21a3.986 3.986 0 0 0-3.984 3.984v20.379a3.986 3.986 0 0 0 3.984 3.984h57.094a3.986 3.986 0 0 0 3.984-3.984v-20.38a3.985 3.985 0 0 0-3.984-3.983z" fill="#ffdfbf" stroke-width="2.989" stroke="#ffbf80" stroke-miterlimit="10"/><use xlink:href="#H" x="137.142" y="129.839"/><use xlink:href="#f" x="150.484" y="129.839"/><use xlink:href="#F" x="158.518" y="129.839"/><use xlink:href="#y" x="161.819" y="129.839"/><use xlink:href="#u" x="170.139" y="129.839"/><path d="M156.758 139.527v7.703" fill="none" stroke-width="1.494" stroke="#ffbf80" stroke-miterlimit="10"/><path d="M156.758 150.867l2.91-5.816-2.91 2.18-2.91-2.18" fill="#ffbf80"/><use xlink:href="#J" x="257.819" y="42.324"/><use xlink:href="#K" x="266.857" y="42.324"/><use xlink:href="#L" x="275.895" y="42.324"/><use xlink:href="#M" x="293.971" y="42.324"/><use xlink:href="#N" x="303.009" y="42.324"/><use xlink:href="#O" x="312.048" y="42.324"/><use xlink:href="#N" x="321.086" y="42.324"/><use xlink:href="#L" x="330.124" y="42.324"/><use xlink:href="#P" x="348.2" y="42.324"/><use xlink:href="#P" x="357.238" y="42.324"/><use xlink:href="#Q" x="375.313" y="42.324"/><use xlink:href="#R" x="384.351" y="42.324"/><use xlink:href="#S" x="393.389" y="42.324"/><use xlink:href="#T" x="402.427" y="42.324"/><use xlink:href="#U" x="411.465" y="42.324"/><path d="M497.32 182.203c-22.324 30.8-43.718 45.266-78.48 53.977" fill="none" stroke-width="1.494" stroke="#4c4c4c" stroke-miterlimit="10"/><path d="M417.426 236.531c1.855-.09 3.793.176 6.219.88-2.512-1.056-2.868-2.47-1.149-4.587-1.805 1.766-3.394 2.914-5.07 3.707z" stroke-width="1.494" stroke-linejoin="round" stroke="#4c4c4c" stroke-miterlimit="10"/></svg>