<svg xmlns="http://www.w3.org/2000/svg" width="642.483" height="64.501" viewBox="0 0 642.483 64.501">
  <g id="CC-BY-NC-ND-4.0" transform="translate(-174.517 -516)">
    <text id="CC_BY-NC-ND_4.0" data-name="CC BY-NC-ND 4.0" transform="translate(506 565)" fill="#adbac7" font-size="40" font-family="SegoeUI, Segoe UI"><tspan x="0" y="0">CC BY-NC-ND 4.0</tspan></text>
    <g id="_BY_" data-name="(BY) " transform="translate(256.517 516.003)">
      <path id="Path_1" data-name="Path 1" d="M31.188,0A32.409,32.409,0,1,0,32,0C31.723,0,31.461-.008,31.188,0Zm-.031,5.5c.285-.008.559,0,.844,0a26.082,26.082,0,1,1-.844,0Z" fill="#adbac7"/>
      <path id="Path_2" data-name="Path 2" d="M36.625,15.938A4.625,4.625,0,1,1,32,11.313,4.627,4.627,0,0,1,36.625,15.938Z" fill="#adbac7"/>
      <path id="Path_3" data-name="Path 3" d="M27.215,52.688h9.57V37.313H39.68s0-10.992,0-12.723a2.7,2.7,0,0,0-.621-2.027,2.675,2.675,0,0,0-2.027-.621c-.473,0-9.59,0-10.063,0a2.675,2.675,0,0,0-2.027.621,2.7,2.7,0,0,0-.621,2.027c0,1.73,0,12.723,0,12.723h2.895Z" fill="#adbac7"/>
    </g>
    <g id="_NC_" data-name="(NC) " transform="translate(339.517 516.003)">
      <path id="Path_4" data-name="Path 4" d="M31.188,0A32.409,32.409,0,1,0,32,0C31.723,0,31.461-.008,31.188,0Zm-.031,5.5c.285-.008.559,0,.844,0a26.082,26.082,0,1,1-.844,0Z" fill="#adbac7"/>
      <path id="Path_5" data-name="Path 5" d="M25.645,38.742c2.063,2.883,8.352,3.09,10.512,1.871.793-.449.988-1.75.988-2.629a2.017,2.017,0,0,0-.477-1.426,5.25,5.25,0,0,0-2.176-1.477C29.473,33.785,26,32.168,24.637,31c-1.7-1.469-1.969-2.426-1.969-4.98a8.1,8.1,0,0,1,2.395-6.23q2.49-2.3,7.234-2.3c3.019,0,7.269.8,9.34,3.258l-3.453,3.754c-1.949-1.633-3.395-1.781-5.781-1.781a4.828,4.828,0,0,0-2.918.649,1.872,1.872,0,0,0-.953,1.629,1.753,1.753,0,0,0,.875,1.5,19.675,19.675,0,0,0,5.145,1.867q5.109,1.395,6.941,3.391a7.618,7.618,0,0,1,1.8,5.3,8.56,8.56,0,0,1-2.809,6.578A10.4,10.4,0,0,1,33.063,46.7c-4.23,0-9.875-1.5-11.434-4.254" fill="#adbac7"/>
      <path id="Path_6" data-name="Path 6" d="M59.344,40.105l-2.406,5.281L5.816,22.352,8.223,17.07Z" fill="#adbac7"/>
      <path id="Path_7" data-name="Path 7" d="M30.375,12.875v6.844h3.25V12.875Zm0,32.094v6.156h3.25V44.969Z" fill="#adbac7"/>
    </g>
    <path id="_ND_" data-name="(ND) " d="M3,31a29,29,0,1,1,0,2Zm17-4H44m0,11H20" transform="translate(420.017 516.5)" fill="none" stroke="#adbac7" stroke-width="6"/>
    <g id="Creative_Commons" data-name="Creative Commons" transform="translate(174.163 515.689)">
      <path id="Path_8" data-name="Path 8" d="M31.957.311a30.475,30.475,0,0,0-22.226,9.2A31.9,31.9,0,0,0,.354,32a31.121,31.121,0,0,0,9.29,22.313A31.357,31.357,0,0,0,31.957,63.69a32.18,32.18,0,0,0,22.66-9.463A30.52,30.52,0,0,0,63.646,32,31.424,31.424,0,0,0,31.957.311Zm.086,5.73A25.79,25.79,0,0,1,57.915,32a24.755,24.755,0,0,1-7.379,18.146,26.337,26.337,0,0,1-18.493,7.727,25.557,25.557,0,0,1-18.232-7.641A25.8,25.8,0,0,1,6.084,32a26.2,26.2,0,0,1,7.727-18.406A24.9,24.9,0,0,1,32.043,6.041Z" fill="#adbac7"/>
      <path id="c" d="M31.635,26.734c-1.79-3.264-4.844-4.563-8.389-4.563-5.16,0-9.267,3.65-9.267,9.828,0,6.283,3.861,9.829,9.442,9.829a9.5,9.5,0,0,0,8.319-4.949l-3.931-2a3.848,3.848,0,0,1-3.9,2.738c-2.914,0-4.248-2.422-4.248-5.617s1.124-5.616,4.248-5.616a4.013,4.013,0,0,1,3.51,2.563Z" fill="#adbac7"/>
      <path id="Path_9" data-name="Path 9" d="M31.635,26.734c-1.79-3.264-4.844-4.563-8.389-4.563-5.16,0-9.267,3.65-9.267,9.828,0,6.283,3.861,9.829,9.442,9.829a9.5,9.5,0,0,0,8.319-4.949l-3.931-2a3.848,3.848,0,0,1-3.9,2.738c-2.914,0-4.248-2.422-4.248-5.617s1.124-5.616,4.248-5.616a4.013,4.013,0,0,1,3.51,2.563Z" transform="translate(18.281)" fill="#adbac7"/>
    </g>
  </g>
</svg>
